<?xml version="1.0" encoding="utf-8"?>
<!-- Generator: Adobe Illustrator 15.1.0, SVG Export Plug-In . SVG Version: 6.00 Build 0)  -->
<!DOCTYPE svg PUBLIC "-//W3C//DTD SVG 1.1//EN" "http://www.w3.org/Graphics/SVG/1.1/DTD/svg11.dtd">
<svg version="1.1" id="Layer_1" xmlns="http://www.w3.org/2000/svg" xmlns:xlink="http://www.w3.org/1999/xlink" x="0px" y="0px"
	 width="20px" height="20px" viewBox="0 0 20 20" enable-background="new 0 0 20 20" xml:space="preserve">
<g>
	<g>
		<g>
			<path stroke="#000000" stroke-width="0.5" stroke-linejoin="round" d="M3.922,16.232c1.525-0.438,4.551,0.192,6.078-0.9
				c1.525,1.094,4.553,0.463,6.079,0.9c0,0,0.741,0.242,1.351,0.899c-0.307,0.438-0.742,0.445-1.351,0.226
				c-1.526-0.438-4.554,0.207-6.079-0.449c-1.525,0.656-4.551,0.013-6.078,0.449c-0.607,0.221-1.045,0.213-1.352-0.226
				C3.18,16.477,3.922,16.232,3.922,16.232z"/>
			<path stroke="#000000" stroke-width="0.5" stroke-linejoin="round" d="M6.624,14.432c1.125,1.125,5.627,1.125,6.753,0
				c0.225-0.676,0-0.899,0-0.899c0-1.126-1.126-1.802-1.126-1.802c2.478-0.676,2.702-5.178-2.251-6.979
				c-4.952,1.801-4.727,6.303-2.251,6.979c0,0-1.125,0.676-1.125,1.802C6.624,13.531,6.398,13.756,6.624,14.432z"/>
			<path stroke="#000000" stroke-width="0.5" stroke-linejoin="round" d="M11.126,3.625c0,0.622-0.504,1.126-1.126,1.126
				S8.875,4.247,8.875,3.625S9.379,2.5,10,2.5C10.622,2.5,11.126,3.004,11.126,3.625z"/>
		</g>
		<path fill="none" stroke="#FFFFFF" stroke-width="0.5" stroke-linecap="round" d="M7.749,11.729h4.502 M6.624,13.531h6.753"/>
	</g>
</g>
<circle fill="#FFFFFF" cx="10" cy="8.2" r="1.5"/>
</svg>
