<?xml version="1.0" encoding="utf-8"?>
<!-- Generator: Adobe Illustrator 15.1.0, SVG Export Plug-In . SVG Version: 6.00 Build 0)  -->
<!DOCTYPE svg PUBLIC "-//W3C//DTD SVG 1.1//EN" "http://www.w3.org/Graphics/SVG/1.1/DTD/svg11.dtd">
<svg version="1.1" id="Layer_1" xmlns="http://www.w3.org/2000/svg" xmlns:xlink="http://www.w3.org/1999/xlink" x="0px" y="0px"
	 width="20px" height="20px" viewBox="0 0 20 20" enable-background="new 0 0 20 20" xml:space="preserve">
<g>
	<path fill="none" stroke="#000000" stroke-width="0.5" stroke-linecap="round" d="M10,5.771V3.413"/>
	<path fill="#FFFFFF" stroke="#000000" stroke-width="0.5" d="M10,11.373c0,0,1.885-3.143,1.256-4.399c0,0-0.419-1.047-1.256-1.047
		S8.743,6.974,8.743,6.974C8.115,8.23,10,11.373,10,11.373"/>
	<path fill="#FFFFFF" stroke="#000000" stroke-width="0.5" stroke-linecap="round" stroke-linejoin="round" d="M5.811,16.399
		c2.303,1.468,6.074,1.468,8.379,0v-2.932c0,0,3.771-1.886,2.515-4.399C15.027,6.345,11.047,7.603,10,10.744v1.466v-1.466
		C8.953,7.601,4.973,6.345,3.296,9.069c-1.257,2.512,2.514,4.399,2.514,4.399V16.399"/>
	<path fill="none" stroke="#000000" stroke-width="0.5" stroke-linecap="round" stroke-linejoin="round" d="M5.811,13.468
		c2.303-1.256,6.074-1.256,8.379,0"/>
	<path fill="none" stroke="#000000" stroke-width="0.5" stroke-linecap="round" stroke-linejoin="round" d="M5.811,14.935
		c2.303-1.258,6.074-1.258,8.379,0"/>
	<path fill="none" stroke="#000000" stroke-width="0.5" stroke-linecap="round" stroke-linejoin="round" d="M5.811,16.399
		c2.303-1.256,6.074-1.256,8.379,0"/>
	<circle fill="#1D1D1B" cx="10" cy="3.695" r="1"/>
</g>
</svg>
