<?xml version="1.0" encoding="utf-8"?>
<!-- Generator: Adobe Illustrator 15.1.0, SVG Export Plug-In . SVG Version: 6.00 Build 0)  -->
<!DOCTYPE svg PUBLIC "-//W3C//DTD SVG 1.1//EN" "http://www.w3.org/Graphics/SVG/1.1/DTD/svg11.dtd">
<svg version="1.1" id="Layer_1" xmlns="http://www.w3.org/2000/svg" xmlns:xlink="http://www.w3.org/1999/xlink" x="0px" y="0px"
	 width="20px" height="20px" viewBox="0 0 20 20" enable-background="new 0 0 20 20" xml:space="preserve">
<g>
	<path id="path6570" fill="none" stroke="#000000" stroke-width="0.5" stroke-linecap="round" d="M10,5.613V3.223"/>
	<path stroke="#000000" stroke-width="0.5" d="M10,11.291c0,0,1.911-3.186,1.273-4.459c0,0-0.424-1.063-1.273-1.063
		S8.727,6.832,8.727,6.832C8.09,8.105,10,11.291,10,11.291"/>
	<path stroke="#000000" stroke-width="0.5" stroke-linecap="round" stroke-linejoin="round" d="M5.754,16.385
		c2.334,1.486,6.157,1.486,8.492,0v-2.971c0,0,3.822-1.91,2.548-4.458C15.096,6.195,11.063,7.471,10,10.654v1.484v-1.484
		C8.938,7.469,4.904,6.195,3.206,8.956c-1.273,2.548,2.547,4.458,2.547,4.458L5.754,16.385"/>
	<path fill="none" stroke="#FFFFFF" stroke-width="0.5" stroke-linecap="round" stroke-linejoin="round" d="M14.035,13.201
		c0,0,3.607-1.699,2.561-4.098c-1.648-2.484-5.533-0.787-6.595,1.975v0.891v-0.891C8.939,8.318,5.055,6.62,3.407,9.104
		c-1.049,2.397,2.561,4.098,2.561,4.098"/>
	<path fill="none" stroke="#FFFFFF" stroke-width="0.5" stroke-linecap="round" stroke-linejoin="round" d="M5.754,13.414
		c2.334-1.275,6.157-1.275,8.492,0 M5.754,14.9c2.334-1.273,6.157-1.273,8.492,0 M5.754,16.385c2.334-1.273,6.157-1.273,8.492,0"/>
	<circle fill="#1D1D1B" cx="10" cy="3.509" r="1.009"/>
</g>
</svg>
