<?xml version="1.0" encoding="utf-8"?>
<!-- Generator: Adobe Illustrator 15.1.0, SVG Export Plug-In . SVG Version: 6.00 Build 0)  -->
<!DOCTYPE svg PUBLIC "-//W3C//DTD SVG 1.1//EN" "http://www.w3.org/Graphics/SVG/1.1/DTD/svg11.dtd">
<svg version="1.1" id="Layer_1" xmlns="http://www.w3.org/2000/svg" xmlns:xlink="http://www.w3.org/1999/xlink" x="0px" y="0px"
	 width="20px" height="20px" viewBox="0 0 20 20" enable-background="new 0 0 20 20" xml:space="preserve">
<g>
	<g>
		<path fill="#FFFFFF" stroke="#000000" stroke-width="0.5" stroke-linecap="round" stroke-linejoin="round" d="M9.993,3.907
			c4.922,0.468,7.734,3.75,7.5,13.593H6.711c0-4.219,4.689-3.047,3.75-9.843"/>
		<path fill="#FFFFFF" stroke="#000000" stroke-width="0.5" stroke-linecap="round" stroke-linejoin="round" d="M10.932,7.657
			c0.178,1.364-2.602,3.454-3.75,4.218c-1.406,0.938-1.322,2.034-2.344,1.875c-0.488-0.439,0.661-1.425,0-1.406
			c-0.469,0,0.09,0.576-0.469,0.938c-0.469,0-1.876,0.469-1.875-1.875c0-0.938,2.813-5.625,2.813-5.625s0.887-0.892,0.938-1.642
			C5.902,3.675,6.011,3.203,6.011,2.735C6.48,2.266,7.417,3.907,7.417,3.907h0.938c0,0,0.365-0.935,1.172-1.407
			c0.468,0,0.468,1.407,0.468,1.407"/>
		<path stroke="#000000" stroke-width="0.5" stroke-linecap="round" stroke-linejoin="round" d="M4.133,11.172
			c0,0.131-0.104,0.234-0.235,0.234c-0.129,0-0.233-0.104-0.233-0.234c0-0.13,0.104-0.234,0.233-0.234
			C4.029,10.938,4.133,11.042,4.133,11.172z"/>
		<path stroke="#000000" stroke-width="0.5" stroke-linecap="round" stroke-linejoin="round" d="M6.681,6.602
			C6.486,6.938,6.238,7.158,6.126,7.093C6.015,7.029,6.081,6.704,6.275,6.367C6.468,6.031,6.716,5.811,6.83,5.876
			C6.941,5.939,6.875,6.266,6.681,6.602z"/>
	</g>
</g>
</svg>
