<?xml version="1.0" encoding="utf-8"?>
<!-- Generator: Adobe Illustrator 15.1.0, SVG Export Plug-In . SVG Version: 6.00 Build 0)  -->
<!DOCTYPE svg PUBLIC "-//W3C//DTD SVG 1.1//EN" "http://www.w3.org/Graphics/SVG/1.1/DTD/svg11.dtd">
<svg version="1.1" id="Layer_1" xmlns="http://www.w3.org/2000/svg" xmlns:xlink="http://www.w3.org/1999/xlink" x="0px" y="0px"
	 width="20px" height="20px" viewBox="0 0 20 20" enable-background="new 0 0 20 20" xml:space="preserve">
<g>
	<path stroke="#000000" stroke-width="0.5" stroke-linecap="round" stroke-linejoin="round" d="M9.994,3.885
		c4.844,0.463,7.614,3.692,7.383,13.385H6.762c0-4.153,4.615-3,3.692-9.691"/>
	<path stroke="#000000" stroke-width="0.5" stroke-linecap="round" stroke-linejoin="round" d="M10.916,7.577
		c0.175,1.343-2.562,3.401-3.691,4.153c-1.385,0.922-1.302,2.004-2.308,1.847c-0.481-0.435,0.649-1.403,0-1.386
		c-0.462,0,0.088,0.568-0.462,0.924c-0.461,0-1.847,0.462-1.846-1.848c0-0.922,2.769-5.537,2.769-5.537s0.873-0.877,0.923-1.614
		c-0.337-0.459-0.23-0.923-0.23-1.385c0.462-0.462,1.385,1.154,1.385,1.154h0.923c0,0,0.36-0.919,1.154-1.385
		c0.461,0,0.461,1.385,0.461,1.385"/>
	<path fill="#FFFFFF" stroke="#FFFFFF" stroke-width="0.5" stroke-linecap="round" stroke-linejoin="round" d="M4.225,11.038
		c0,0.128-0.103,0.229-0.23,0.229c-0.127,0-0.23-0.103-0.23-0.229s0.104-0.229,0.23-0.229C4.123,10.809,4.225,10.911,4.225,11.038z"
		/>
	<path fill="#FFFFFF" stroke="#FFFFFF" stroke-width="0.5" stroke-linecap="round" stroke-linejoin="round" d="M6.733,6.539
		C6.542,6.87,6.296,7.087,6.186,7.023c-0.11-0.064-0.045-0.385,0.146-0.715C6.524,5.977,6.768,5.76,6.877,5.824
		C6.989,5.889,6.923,6.208,6.733,6.539z"/>
	<path fill="#FFFFFF" d="M11.17,4.068l-0.208,0.67l0.229,0.07c1.455,0.461,2.608,1.148,3.646,3.114
		c1.039,1.966,1.5,4.759,1.27,9.347l-0.022,0.23h1.038l0.023-0.23c0.229-4.644-0.406-7.776-1.5-9.85
		c-1.094-2.072-2.672-3.064-4.242-3.305L11.17,4.068z"/>
</g>
</svg>
