<?xml version="1.0" encoding="utf-8"?>
<!-- Generator: Adobe Illustrator 15.1.0, SVG Export Plug-In . SVG Version: 6.00 Build 0)  -->
<!DOCTYPE svg PUBLIC "-//W3C//DTD SVG 1.1//EN" "http://www.w3.org/Graphics/SVG/1.1/DTD/svg11.dtd">
<svg version="1.1" id="Layer_1" xmlns="http://www.w3.org/2000/svg" xmlns:xlink="http://www.w3.org/1999/xlink" x="0px" y="0px"
	 width="20px" height="20px" viewBox="0 0 20 20" enable-background="new 0 0 20 20" xml:space="preserve">
<g>
	<path fill="#FFFFFF" stroke="#000000" stroke-width="0.5" stroke-linecap="round" d="M10.001,2.5c-1.087,0-1.967,0.88-1.967,1.967
		c0,0.438,0.142,0.842,0.383,1.172C7.459,6.189,6.804,7.216,6.804,8.4c0,1,0.463,1.889,1.186,2.475
		c-1.477,0.521-3.645,2.729-3.645,6.625h11.311c0-3.896-2.168-6.104-3.643-6.626c0.723-0.585,1.186-1.474,1.186-2.474
		c0-1.186-0.654-2.213-1.613-2.764c0.241-0.328,0.385-0.732,0.385-1.17C11.968,3.38,11.089,2.5,10.001,2.5z"/>
</g>
</svg>
