<?xml version="1.0" encoding="utf-8"?>
<!-- Generator: Adobe Illustrator 15.1.0, SVG Export Plug-In . SVG Version: 6.00 Build 0)  -->
<!DOCTYPE svg PUBLIC "-//W3C//DTD SVG 1.1//EN" "http://www.w3.org/Graphics/SVG/1.1/DTD/svg11.dtd">
<svg version="1.1" id="Layer_1" xmlns="http://www.w3.org/2000/svg" xmlns:xlink="http://www.w3.org/1999/xlink" x="0px" y="0px"
	 width="20px" height="20px" viewBox="0 0 20 20" enable-background="new 0 0 20 20" xml:space="preserve">
<g>
	<g>
		<path fill="#FFFFFF" stroke="#000000" stroke-width="0.5" stroke-linecap="round" stroke-linejoin="round" d="M3.556,5.39
			c0,0.49-0.398,0.889-0.89,0.889S1.778,5.879,1.778,5.39c0-0.492,0.398-0.889,0.889-0.889C3.158,4.5,3.556,4.898,3.556,5.39z"/>
		<path fill="#FFFFFF" stroke="#000000" stroke-width="0.5" stroke-linecap="round" stroke-linejoin="round" d="M10.888,3.389
			c0,0.49-0.396,0.888-0.889,0.888c-0.491,0-0.889-0.397-0.889-0.888S9.508,2.5,9.999,2.5S10.888,2.898,10.888,3.389z"/>
		<path fill="#FFFFFF" stroke="#000000" stroke-width="0.5" stroke-linecap="round" stroke-linejoin="round" d="M18.223,5.39
			c0,0.49-0.398,0.889-0.89,0.889S16.445,5.88,16.445,5.39c0-0.492,0.396-0.889,0.888-0.889C17.822,4.5,18.223,4.898,18.223,5.39z"
			/>
		<path fill="#FFFFFF" stroke="#000000" stroke-width="0.5" stroke-linecap="round" stroke-linejoin="round" d="M7.11,4.056
			c0,0.491-0.398,0.889-0.889,0.889c-0.49,0-0.889-0.397-0.889-0.889s0.398-0.89,0.889-0.89C6.711,3.166,7.11,3.563,7.11,4.056z"/>
		<path fill="#FFFFFF" stroke="#000000" stroke-width="0.5" stroke-linecap="round" stroke-linejoin="round" d="M14.665,4.056
			c0,0.491-0.398,0.889-0.889,0.889c-0.491,0-0.889-0.397-0.889-0.889s0.397-0.89,0.889-0.89
			C14.267,3.166,14.665,3.563,14.665,4.056z"/>
		<path fill="#FFFFFF" stroke="#000000" stroke-width="0.5" stroke-linejoin="round" d="M3.999,11.61
			c3.777-0.666,8.223-0.666,12.001,0l0.889-5.334l-3.112,4.89V4.943l-2.442,6L9.999,4.279l-1.333,6.666l-2.445-6v6.221L3.112,6.278
			L3.999,11.61z"/>
		<path fill="#FFFFFF" stroke="#000000" stroke-width="0.5" stroke-linejoin="round" d="M3.999,11.61
			c0,0.889,0.667,0.889,1.111,1.779c0.445,0.666,0.445,0.442,0.223,1.555C4.666,15.39,4.89,16.057,4.89,16.057
			c-0.668,0.666,0,1.11,0,1.11c2.887,0.444,7.332,0.444,10.221,0c0,0,0.666-0.442,0-1.11c0,0,0.223-0.667-0.444-1.112
			c-0.222-1.111-0.222-0.889,0.224-1.555C15.333,12.5,16,12.5,16,11.61C12.222,10.944,7.776,10.944,3.999,11.61z"/>
		<path fill="none" stroke="#000000" stroke-width="0.5" stroke-linecap="round" stroke-linejoin="round" d="M5.11,13.39
			c1.557-0.445,8.223-0.445,9.778,0"/>
		<path fill="none" stroke="#000000" stroke-width="0.5" stroke-linecap="round" stroke-linejoin="round" d="M5.333,14.942
			c2.667-0.443,6.667-0.443,9.333,0"/>
	</g>
</g>
</svg>
