<?xml version="1.0" encoding="utf-8"?>
<!-- Generator: Adobe Illustrator 15.1.0, SVG Export Plug-In . SVG Version: 6.00 Build 0)  -->
<!DOCTYPE svg PUBLIC "-//W3C//DTD SVG 1.1//EN" "http://www.w3.org/Graphics/SVG/1.1/DTD/svg11.dtd">
<svg version="1.1" id="Layer_1" xmlns="http://www.w3.org/2000/svg" xmlns:xlink="http://www.w3.org/1999/xlink" x="0px" y="0px"
	 width="20px" height="20px" viewBox="0 0 20 20" enable-background="new 0 0 20 20" xml:space="preserve">
<g>
	<g>
		<circle cx="2.967" cy="5.377" r="1.172"/>
		<circle cx="6.378" cy="4.098" r="1.172"/>
		<circle cx="10.001" cy="3.672" r="1.172"/>
		<circle cx="13.624" cy="4.098" r="1.172"/>
		<circle cx="17.033" cy="5.377" r="1.172"/>
	</g>
	<path stroke="#000000" stroke-width="0.5" stroke-linejoin="round" d="M4.247,11.344c3.623-0.639,8.951-0.639,11.508,0l1.064-5.328
		l-3.195,4.902l-0.128-6.01l-2.218,5.797l-1.277-6.182l-1.279,6.182L6.506,4.908l-0.128,6.01L3.181,6.016L4.247,11.344z"/>
	<path stroke="#000000" stroke-width="0.5" stroke-linejoin="round" d="M4.247,11.344c0,0.854,0.639,0.854,1.064,1.705
		c0.426,0.639,0.426,0.428,0.213,1.491c-0.639,0.427-0.426,1.065-0.426,1.065c-0.64,0.64,0,1.064,0,1.064
		c2.771,0.428,7.032,0.428,9.803,0c0,0,0.639-0.426,0-1.064c0,0,0.213-0.64-0.426-1.065c-0.213-1.063-0.213-0.853,0.213-1.491
		c0.426-0.854,1.064-0.854,1.064-1.705C12.133,10.705,7.87,10.705,4.247,11.344z"/>
	<path fill="none" stroke="#000000" stroke-width="0.5" stroke-linejoin="round" d="M5.099,16.672c3.176,1.104,6.631,1.104,9.805,0"
		/>
	<path fill="none" stroke="#FFFFFF" stroke-width="0.5" stroke-linecap="round" stroke-linejoin="round" d="M5.099,12.623
		c3.176-1.105,6.631-1.105,9.805,0"/>
	<path fill="none" stroke="#FFFFFF" stroke-width="0.5" stroke-linecap="round" stroke-linejoin="round" d="M5.737,13.688h8.525"/>
	<path fill="none" stroke="#FFFFFF" stroke-width="0.5" stroke-linecap="round" stroke-linejoin="round" d="M5.313,14.967
		c3.043,1.008,6.332,1.008,9.377,0"/>
	<path fill="none" stroke="#FFFFFF" stroke-width="0.5" stroke-linecap="round" stroke-linejoin="round" d="M4.886,16.245
		c3.303,1.206,6.926,1.206,10.23,0"/>
</g>
</svg>
