<?xml version="1.0" encoding="utf-8"?>
<!-- Generator: Adobe Illustrator 15.1.0, SVG Export Plug-In . SVG Version: 6.00 Build 0)  -->
<!DOCTYPE svg PUBLIC "-//W3C//DTD SVG 1.1//EN" "http://www.w3.org/Graphics/SVG/1.1/DTD/svg11.dtd">
<svg version="1.1" id="Layer_1" xmlns="http://www.w3.org/2000/svg" xmlns:xlink="http://www.w3.org/1999/xlink" x="0px" y="0px"
	 width="20px" height="20px" viewBox="0 0 20 20" enable-background="new 0 0 20 20" xml:space="preserve">
<g>
	<g>
		<path stroke="#000000" stroke-width="0.5" stroke-linejoin="round" d="M3.25,17.5h13.5V16H3.25V17.5z"/>
		<path stroke="#000000" stroke-width="0.5" stroke-linejoin="round" d="M5,14l0.75-1.25h8.5L15,14H5z"/>
		<path stroke="#000000" stroke-width="0.5" stroke-linejoin="round" d="M4.75,16v-2h10.5v2H4.75z"/>
		<path stroke="#000000" stroke-width="0.5" d="M5.75,12.75v-6.5h8.5v6.5H5.75z"/>
		<path stroke="#000000" stroke-width="0.5" stroke-linejoin="round" d="M5.75,6.25L4.25,5h11.5l-1.5,1.25H5.75z"/>
		<path stroke="#000000" stroke-width="0.5" stroke-linejoin="round" d="M4.25,5V2.5h2v1h2.5v-1h2.5v1h2.501v-1h1.999V5H4.25z"/>
		<path fill="none" stroke="#FFFFFF" stroke-width="0.5" stroke-linecap="round" d="M4.75,15.75h10.5l0,0"/>
		<path fill="none" stroke="#FFFFFF" stroke-width="0.5" stroke-linecap="round" d="M5.25,13.75h9.5"/>
		<path fill="none" stroke="#FFFFFF" stroke-width="0.5" stroke-linecap="round" d="M5.75,12.75h8.5"/>
		<path fill="none" stroke="#FFFFFF" stroke-width="0.5" stroke-linecap="round" d="M5.75,6.25h8.5"/>
		<path fill="none" stroke="#FFFFFF" stroke-width="0.5" stroke-linecap="round" d="M4.25,5h11.5"/>
	</g>
</g>
</svg>
