<?xml version="1.0" encoding="utf-8"?>
<!-- Generator: Adobe Illustrator 15.1.0, SVG Export Plug-In . SVG Version: 6.00 Build 0)  -->
<!DOCTYPE svg PUBLIC "-//W3C//DTD SVG 1.0//EN" "http://www.w3.org/TR/2001/REC-SVG-20010904/DTD/svg10.dtd">
<svg version="1.0" id="Layer_1" xmlns="http://www.w3.org/2000/svg" xmlns:xlink="http://www.w3.org/1999/xlink" x="0px" y="0px"
	 width="640px" height="480px" viewBox="0 0 640 480" enable-background="new 0 0 640 480" xml:space="preserve">
<g>
	<g>
		<linearGradient id="SVGID_1_" gradientUnits="userSpaceOnUse" x1="63.4233" y1="195.2217" x2="573.3906" y2="195.2217">
			<stop  offset="0" style="stop-color:#B57E10"/>
			<stop  offset="0.0947" style="stop-color:#E5C35C"/>
			<stop  offset="0.1398" style="stop-color:#F9DF7B"/>
			<stop  offset="0.2581" style="stop-color:#FFF3A6"/>
			<stop  offset="0.3602" style="stop-color:#F9DF7B"/>
			<stop  offset="0.4892" style="stop-color:#B57E10"/>
			<stop  offset="0.573" style="stop-color:#E5C35C"/>
			<stop  offset="0.6129" style="stop-color:#F9DF7B"/>
			<stop  offset="0.7204" style="stop-color:#FFF3A6"/>
			<stop  offset="0.8387" style="stop-color:#F9DF7B"/>
			<stop  offset="1" style="stop-color:#B57E10"/>
		</linearGradient>
		<path fill="url(#SVGID_1_)" d="M86.798,220.174c-3.94,0-7.377-0.598-10.31-1.793c-2.933-1.195-5.368-2.889-7.305-5.08
			c-1.937-2.191-3.381-4.825-4.333-7.902c-0.952-3.077-1.428-6.485-1.428-10.227c0-3.674,0.503-7.039,1.511-10.094
			c1.007-3.055,2.512-5.678,4.516-7.869c2.003-2.191,4.488-3.896,7.454-5.113c2.966-1.217,6.408-1.826,10.326-1.826
			c2.523,0,4.72,0.194,6.591,0.581c1.87,0.388,3.431,0.924,4.682,1.61c1.25,0.687,2.186,1.494,2.806,2.424
			c0.62,0.93,0.93,1.937,0.93,3.021c0,0.73-0.166,1.389-0.498,1.976c-0.332,0.587-0.78,1.085-1.345,1.494
			c-0.564,0.41-1.229,0.725-1.992,0.946c-0.764,0.222-1.588,0.332-2.474,0.332c0-1.063-0.155-2.114-0.465-3.154
			c-0.31-1.04-0.819-1.976-1.527-2.806c-0.708-0.83-1.638-1.505-2.789-2.025c-1.151-0.52-2.557-0.78-4.217-0.78
			c-2.878,0-5.329,0.471-7.354,1.411c-2.025,0.941-3.68,2.313-4.964,4.117c-1.284,1.804-2.214,4.029-2.789,6.674
			c-0.576,2.646-0.863,5.672-0.863,9.081c0,3.387,0.299,6.397,0.896,9.031c0.598,2.634,1.571,4.848,2.922,6.641
			c1.35,1.793,3.099,3.154,5.246,4.084c2.147,0.93,4.77,1.395,7.869,1.395c1.306,0,2.573-0.066,3.802-0.199s2.318-0.343,3.271-0.631
			v-10.957c0-0.996-0.149-1.798-0.448-2.407c-0.299-0.608-0.703-1.073-1.212-1.395c-0.509-0.321-1.102-0.537-1.776-0.647
			c-0.675-0.11-1.389-0.166-2.142-0.166h-0.266v-2.855h17.664v2.855h-0.266c-0.642,0-1.251,0.056-1.826,0.166
			c-0.576,0.111-1.074,0.338-1.494,0.681c-0.421,0.343-0.753,0.841-0.996,1.494c-0.244,0.653-0.365,1.511-0.365,2.573v12.219
			c-2.28,1.063-4.626,1.849-7.039,2.357C92.387,219.919,89.72,220.174,86.798,220.174z"/>
		<linearGradient id="SVGID_2_" gradientUnits="userSpaceOnUse" x1="63.4233" y1="195.2217" x2="573.3906" y2="195.2217">
			<stop  offset="0" style="stop-color:#B57E10"/>
			<stop  offset="0.0947" style="stop-color:#E5C35C"/>
			<stop  offset="0.1398" style="stop-color:#F9DF7B"/>
			<stop  offset="0.2581" style="stop-color:#FFF3A6"/>
			<stop  offset="0.3602" style="stop-color:#F9DF7B"/>
			<stop  offset="0.4892" style="stop-color:#B57E10"/>
			<stop  offset="0.573" style="stop-color:#E5C35C"/>
			<stop  offset="0.6129" style="stop-color:#F9DF7B"/>
			<stop  offset="0.7204" style="stop-color:#FFF3A6"/>
			<stop  offset="0.8387" style="stop-color:#F9DF7B"/>
			<stop  offset="1" style="stop-color:#B57E10"/>
		</linearGradient>
		<path fill="url(#SVGID_2_)" d="M121.828,203.273l-2.59,7.139c-0.199,0.531-0.354,1.057-0.465,1.577
			c-0.111,0.521-0.166,0.969-0.166,1.345c0,1.151,0.371,1.992,1.112,2.523c0.741,0.531,1.876,0.797,3.403,0.797h1.561v2.855h-16.602
			v-2.855h1.295c0.664,0,1.229-0.072,1.693-0.216c0.465-0.144,0.885-0.415,1.262-0.813c0.376-0.398,0.736-0.94,1.079-1.627
			c0.343-0.686,0.725-1.571,1.146-2.656l15.074-40.375h5.313l15.373,42.068c0.266,0.708,0.537,1.295,0.813,1.76
			c0.276,0.465,0.603,0.836,0.979,1.112c0.376,0.277,0.808,0.471,1.295,0.581c0.487,0.111,1.063,0.166,1.727,0.166h0.896v2.855
			h-18.693v-2.855h1.561c2.723,0,4.084-1.084,4.084-3.254c0-0.376-0.05-0.764-0.149-1.162s-0.238-0.852-0.415-1.361l-2.723-7.604
			H121.828z M134.246,187.967c-0.708-2.014-1.356-3.901-1.942-5.661c-0.587-1.76-1.068-3.458-1.444-5.097
			c-0.155,0.819-0.338,1.61-0.548,2.374c-0.21,0.764-0.438,1.544-0.681,2.341c-0.244,0.797-0.521,1.633-0.83,2.507
			c-0.31,0.875-0.664,1.843-1.063,2.905l-4.615,12.518h15.34L134.246,187.967z"/>
		<linearGradient id="SVGID_3_" gradientUnits="userSpaceOnUse" x1="63.4233" y1="195.2217" x2="573.3906" y2="195.2217">
			<stop  offset="0" style="stop-color:#B57E10"/>
			<stop  offset="0.0947" style="stop-color:#E5C35C"/>
			<stop  offset="0.1398" style="stop-color:#F9DF7B"/>
			<stop  offset="0.2581" style="stop-color:#FFF3A6"/>
			<stop  offset="0.3602" style="stop-color:#F9DF7B"/>
			<stop  offset="0.4892" style="stop-color:#B57E10"/>
			<stop  offset="0.573" style="stop-color:#E5C35C"/>
			<stop  offset="0.6129" style="stop-color:#F9DF7B"/>
			<stop  offset="0.7204" style="stop-color:#FFF3A6"/>
			<stop  offset="0.8387" style="stop-color:#F9DF7B"/>
			<stop  offset="1" style="stop-color:#B57E10"/>
		</linearGradient>
		<path fill="url(#SVGID_3_)" d="M199.125,219.51v-2.855h0.232c0.73,0,1.389-0.05,1.976-0.149c0.586-0.1,1.084-0.299,1.494-0.598
			c0.409-0.299,0.736-0.73,0.979-1.295c0.243-0.564,0.387-1.312,0.432-2.241v-36.324l-15.572,43.463h-3.686l-15.771-43.33v35.594
			c0,1.063,0.11,1.915,0.332,2.557c0.221,0.642,0.548,1.135,0.979,1.478c0.432,0.343,0.952,0.57,1.561,0.681
			c0.608,0.111,1.289,0.166,2.042,0.166h0.199v2.855h-15.705v-2.855h0.863c0.752,0,1.466-0.05,2.142-0.149
			c0.675-0.1,1.267-0.304,1.776-0.614c0.509-0.31,0.913-0.769,1.212-1.378c0.299-0.608,0.448-1.411,0.448-2.407v-33.668
			c0-0.996-0.149-1.798-0.448-2.407c-0.299-0.608-0.703-1.079-1.212-1.411c-0.509-0.332-1.102-0.548-1.776-0.647
			c-0.675-0.1-1.389-0.149-2.142-0.149h-0.863v-2.855h15.506l14.078,38.881l13.945-38.881h15.074v2.855h-0.863
			c-0.775,0-1.5,0.056-2.175,0.166c-0.675,0.111-1.268,0.338-1.776,0.681c-0.509,0.343-0.908,0.836-1.195,1.478
			c-0.288,0.642-0.432,1.494-0.432,2.557v33.07c0,1.063,0.144,1.915,0.432,2.557c0.288,0.642,0.686,1.135,1.195,1.478
			c0.509,0.343,1.101,0.57,1.776,0.681c0.675,0.111,1.4,0.166,2.175,0.166h0.863v2.855H199.125z"/>
		<linearGradient id="SVGID_4_" gradientUnits="userSpaceOnUse" x1="63.4233" y1="195.2217" x2="573.3906" y2="195.2217">
			<stop  offset="0" style="stop-color:#B57E10"/>
			<stop  offset="0.0947" style="stop-color:#E5C35C"/>
			<stop  offset="0.1398" style="stop-color:#F9DF7B"/>
			<stop  offset="0.2581" style="stop-color:#FFF3A6"/>
			<stop  offset="0.3602" style="stop-color:#F9DF7B"/>
			<stop  offset="0.4892" style="stop-color:#B57E10"/>
			<stop  offset="0.573" style="stop-color:#E5C35C"/>
			<stop  offset="0.6129" style="stop-color:#F9DF7B"/>
			<stop  offset="0.7204" style="stop-color:#FFF3A6"/>
			<stop  offset="0.8387" style="stop-color:#F9DF7B"/>
			<stop  offset="1" style="stop-color:#B57E10"/>
		</linearGradient>
		<path fill="url(#SVGID_4_)" d="M235.714,216.123h13.115c1.084,0,2.009-0.149,2.772-0.448s1.399-0.703,1.909-1.212
			c0.509-0.509,0.907-1.101,1.195-1.776c0.287-0.675,0.486-1.389,0.598-2.142l0.465-2.922h3.553l-0.465,11.887H222.4v-2.855h0.863
			c0.752,0,1.466-0.05,2.142-0.149c0.675-0.1,1.267-0.304,1.776-0.614c0.509-0.31,0.913-0.769,1.212-1.378
			c0.299-0.608,0.448-1.411,0.448-2.407v-33.402c0-1.063-0.144-1.915-0.432-2.557c-0.288-0.642-0.687-1.134-1.195-1.478
			c-0.509-0.343-1.102-0.57-1.776-0.681c-0.675-0.11-1.4-0.166-2.175-0.166H222.4v-2.855h34.266l0.332,11.887h-3.52l-0.332-2.922
			c-0.089-0.752-0.261-1.466-0.515-2.142c-0.255-0.675-0.62-1.267-1.096-1.776c-0.477-0.509-1.074-0.913-1.793-1.212
			c-0.72-0.299-1.589-0.448-2.606-0.448h-11.422v18.096h16.402v3.32h-16.402V216.123z"/>
		<linearGradient id="SVGID_5_" gradientUnits="userSpaceOnUse" x1="63.4233" y1="195.2217" x2="573.3906" y2="195.2217">
			<stop  offset="0" style="stop-color:#B57E10"/>
			<stop  offset="0.0947" style="stop-color:#E5C35C"/>
			<stop  offset="0.1398" style="stop-color:#F9DF7B"/>
			<stop  offset="0.2581" style="stop-color:#FFF3A6"/>
			<stop  offset="0.3602" style="stop-color:#F9DF7B"/>
			<stop  offset="0.4892" style="stop-color:#B57E10"/>
			<stop  offset="0.573" style="stop-color:#E5C35C"/>
			<stop  offset="0.6129" style="stop-color:#F9DF7B"/>
			<stop  offset="0.7204" style="stop-color:#FFF3A6"/>
			<stop  offset="0.8387" style="stop-color:#F9DF7B"/>
			<stop  offset="1" style="stop-color:#B57E10"/>
		</linearGradient>
		<path fill="url(#SVGID_5_)" d="M325.396,195.172c0,3.719-0.465,7.078-1.395,10.077c-0.93,3-2.314,5.556-4.151,7.67
			c-1.838,2.114-4.14,3.741-6.906,4.881c-2.768,1.14-5.999,1.71-9.695,1.71h-20.818v-2.855h0.863c0.774,0,1.499-0.055,2.175-0.166
			c0.675-0.11,1.267-0.337,1.776-0.681c0.509-0.343,0.907-0.835,1.195-1.478c0.287-0.642,0.432-1.494,0.432-2.557v-33.336
			c0-0.996-0.149-1.798-0.448-2.407c-0.299-0.608-0.703-1.079-1.212-1.411c-0.51-0.332-1.102-0.548-1.776-0.647
			c-0.676-0.1-1.39-0.149-2.142-0.149h-0.863v-2.855h20.818c3.497,0,6.618,0.537,9.363,1.61c2.744,1.074,5.063,2.64,6.956,4.698
			c1.892,2.059,3.337,4.593,4.333,7.604C324.898,187.89,325.396,191.32,325.396,195.172z M301.656,216.057
			c2.7,0,5.063-0.459,7.089-1.378c2.025-0.918,3.713-2.263,5.063-4.034c1.35-1.771,2.362-3.951,3.038-6.541
			c0.675-2.59,1.013-5.567,1.013-8.932c0-6.751-1.345-11.909-4.034-15.473c-2.689-3.563-6.724-5.346-12.103-5.346h-5.977v41.703
			H301.656z"/>
		<linearGradient id="SVGID_6_" gradientUnits="userSpaceOnUse" x1="63.4233" y1="195.2217" x2="573.3906" y2="195.2217">
			<stop  offset="0" style="stop-color:#B57E10"/>
			<stop  offset="0.0947" style="stop-color:#E5C35C"/>
			<stop  offset="0.1398" style="stop-color:#F9DF7B"/>
			<stop  offset="0.2581" style="stop-color:#FFF3A6"/>
			<stop  offset="0.3602" style="stop-color:#F9DF7B"/>
			<stop  offset="0.4892" style="stop-color:#B57E10"/>
			<stop  offset="0.573" style="stop-color:#E5C35C"/>
			<stop  offset="0.6129" style="stop-color:#F9DF7B"/>
			<stop  offset="0.7204" style="stop-color:#FFF3A6"/>
			<stop  offset="0.8387" style="stop-color:#F9DF7B"/>
			<stop  offset="1" style="stop-color:#B57E10"/>
		</linearGradient>
		<path fill="url(#SVGID_6_)" d="M366.967,211.209c1.15,1.815,2.268,3.177,3.354,4.084c1.084,0.908,2.346,1.361,3.785,1.361h0.199
			v2.855h-0.963c-2.125,0-3.869-0.077-5.23-0.232c-1.361-0.155-2.518-0.454-3.469-0.896c-0.953-0.442-1.766-1.063-2.441-1.859
			s-1.4-1.837-2.174-3.121l-9.197-15.307h-5.645v14.012c0,0.996,0.148,1.799,0.447,2.407c0.299,0.609,0.703,1.068,1.213,1.378
			c0.508,0.31,1.1,0.515,1.775,0.614s1.389,0.149,2.143,0.149h0.896v2.855h-19.789v-2.855h0.863c0.752,0,1.465-0.05,2.141-0.149
			s1.268-0.304,1.777-0.614c0.508-0.31,0.912-0.769,1.211-1.378c0.299-0.608,0.449-1.411,0.449-2.407v-33.668
			c0-0.996-0.15-1.798-0.449-2.407c-0.299-0.608-0.703-1.079-1.211-1.411c-0.51-0.332-1.102-0.548-1.777-0.647
			s-1.389-0.149-2.141-0.149h-0.863v-2.855h18.295c5.887,0,10.27,1.09,13.148,3.271c2.877,2.181,4.316,5.462,4.316,9.845
			c0,1.815-0.295,3.403-0.881,4.765s-1.355,2.54-2.307,3.536c-0.953,0.996-2.025,1.826-3.221,2.49s-2.391,1.195-3.586,1.594
			L366.967,211.209z M345.186,194.906h4.781c1.992,0,3.652-0.221,4.98-0.664c1.328-0.442,2.391-1.106,3.188-1.992
			c0.797-0.885,1.365-1.992,1.709-3.32s0.516-2.877,0.516-4.648c0-1.815-0.189-3.359-0.564-4.632
			c-0.377-1.272-0.986-2.313-1.826-3.121c-0.842-0.808-1.932-1.395-3.271-1.76s-2.971-0.548-4.896-0.548h-4.615V194.906z"/>
		<linearGradient id="SVGID_7_" gradientUnits="userSpaceOnUse" x1="63.4233" y1="195.2217" x2="573.3906" y2="195.2217">
			<stop  offset="0" style="stop-color:#B57E10"/>
			<stop  offset="0.0947" style="stop-color:#E5C35C"/>
			<stop  offset="0.1398" style="stop-color:#F9DF7B"/>
			<stop  offset="0.2581" style="stop-color:#FFF3A6"/>
			<stop  offset="0.3602" style="stop-color:#F9DF7B"/>
			<stop  offset="0.4892" style="stop-color:#B57E10"/>
			<stop  offset="0.573" style="stop-color:#E5C35C"/>
			<stop  offset="0.6129" style="stop-color:#F9DF7B"/>
			<stop  offset="0.7204" style="stop-color:#FFF3A6"/>
			<stop  offset="0.8387" style="stop-color:#F9DF7B"/>
			<stop  offset="1" style="stop-color:#B57E10"/>
		</linearGradient>
		<path fill="url(#SVGID_7_)" d="M387.619,203.273l-2.59,7.139c-0.199,0.531-0.355,1.057-0.465,1.577
			c-0.111,0.521-0.166,0.969-0.166,1.345c0,1.151,0.369,1.992,1.111,2.523s1.877,0.797,3.404,0.797h1.561v2.855h-16.602v-2.855
			h1.295c0.664,0,1.229-0.072,1.693-0.216c0.465-0.144,0.885-0.415,1.262-0.813c0.375-0.398,0.734-0.94,1.078-1.627
			c0.344-0.686,0.725-1.571,1.146-2.656l15.074-40.375h5.313l15.373,42.068c0.266,0.708,0.535,1.295,0.813,1.76
			s0.604,0.836,0.98,1.112c0.375,0.277,0.807,0.471,1.295,0.581c0.486,0.111,1.063,0.166,1.727,0.166h0.896v2.855h-18.693v-2.855
			h1.561c2.723,0,4.084-1.084,4.084-3.254c0-0.376-0.051-0.764-0.15-1.162s-0.238-0.852-0.414-1.361l-2.723-7.604H387.619z
			 M400.037,187.967c-0.709-2.014-1.357-3.901-1.943-5.661s-1.068-3.458-1.443-5.097c-0.156,0.819-0.338,1.61-0.549,2.374
			s-0.438,1.544-0.68,2.341c-0.244,0.797-0.521,1.633-0.83,2.507c-0.311,0.875-0.664,1.843-1.063,2.905l-4.615,12.518h15.34
			L400.037,187.967z"/>
		<linearGradient id="SVGID_8_" gradientUnits="userSpaceOnUse" x1="63.4233" y1="195.2217" x2="573.3906" y2="195.2217">
			<stop  offset="0" style="stop-color:#B57E10"/>
			<stop  offset="0.0947" style="stop-color:#E5C35C"/>
			<stop  offset="0.1398" style="stop-color:#F9DF7B"/>
			<stop  offset="0.2581" style="stop-color:#FFF3A6"/>
			<stop  offset="0.3602" style="stop-color:#F9DF7B"/>
			<stop  offset="0.4892" style="stop-color:#B57E10"/>
			<stop  offset="0.573" style="stop-color:#E5C35C"/>
			<stop  offset="0.6129" style="stop-color:#F9DF7B"/>
			<stop  offset="0.7204" style="stop-color:#FFF3A6"/>
			<stop  offset="0.8387" style="stop-color:#F9DF7B"/>
			<stop  offset="1" style="stop-color:#B57E10"/>
		</linearGradient>
		<path fill="url(#SVGID_8_)" d="M456.25,171.432l8.5,29.451c0.641,2.258,1.211,4.422,1.709,6.491
			c0.498,2.07,0.902,3.891,1.213,5.462c0.332-1.638,0.713-3.359,1.145-5.163c0.432-1.804,0.957-3.802,1.578-5.993l5.977-20.984
			c0.066-0.266,0.143-0.564,0.232-0.896c0.088-0.332,0.166-0.664,0.232-0.996s0.127-0.642,0.182-0.93
			c0.055-0.288,0.084-0.531,0.084-0.73c0-1.173-0.371-2.02-1.113-2.54c-0.742-0.52-1.865-0.78-3.369-0.78h-1.561v-2.855h16.602
			v2.855h-1.295c-0.664,0-1.246,0.066-1.744,0.199s-0.945,0.388-1.344,0.764c-0.398,0.376-0.764,0.908-1.096,1.594
			c-0.332,0.687-0.664,1.594-0.996,2.723l-11.488,40.408h-6.109l-11.09-38.084l-10.393,38.084h-6.275l-12.451-42.102
			c-0.223-0.708-0.471-1.295-0.748-1.76s-0.604-0.83-0.979-1.096c-0.377-0.266-0.82-0.454-1.328-0.564
			c-0.51-0.11-1.096-0.166-1.76-0.166h-0.896v-2.855h18.727v2.855h-1.561c-1.373,0-2.396,0.26-3.072,0.78
			c-0.676,0.521-1.012,1.345-1.012,2.474c0,0.376,0.055,0.764,0.166,1.162c0.109,0.398,0.232,0.853,0.365,1.361l6.242,21.748
			c0.574,2.059,1.117,4.079,1.627,6.06c0.508,1.981,0.951,3.791,1.328,5.429c0.332-1.771,0.725-3.702,1.178-5.794
			s0.98-4.233,1.578-6.425l8.102-29.186H456.25z"/>
		<linearGradient id="SVGID_9_" gradientUnits="userSpaceOnUse" x1="63.4233" y1="195.2217" x2="573.3906" y2="195.2217">
			<stop  offset="0" style="stop-color:#B57E10"/>
			<stop  offset="0.0947" style="stop-color:#E5C35C"/>
			<stop  offset="0.1398" style="stop-color:#F9DF7B"/>
			<stop  offset="0.2581" style="stop-color:#FFF3A6"/>
			<stop  offset="0.3602" style="stop-color:#F9DF7B"/>
			<stop  offset="0.4892" style="stop-color:#B57E10"/>
			<stop  offset="0.573" style="stop-color:#E5C35C"/>
			<stop  offset="0.6129" style="stop-color:#F9DF7B"/>
			<stop  offset="0.7204" style="stop-color:#FFF3A6"/>
			<stop  offset="0.8387" style="stop-color:#F9DF7B"/>
			<stop  offset="1" style="stop-color:#B57E10"/>
		</linearGradient>
		<path fill="url(#SVGID_9_)" d="M526.939,219.51l-25.5-39.18v31.443c0,1.063,0.148,1.915,0.447,2.557
			c0.299,0.642,0.697,1.135,1.195,1.478c0.498,0.343,1.09,0.57,1.777,0.681c0.686,0.111,1.404,0.166,2.158,0.166h0.896v2.855
			h-17.066v-2.855h0.863c0.773,0,1.498-0.055,2.174-0.166c0.676-0.11,1.268-0.337,1.777-0.681c0.508-0.343,0.906-0.835,1.195-1.478
			c0.287-0.642,0.432-1.494,0.432-2.557v-33.336c0-0.996-0.15-1.798-0.449-2.407c-0.299-0.608-0.703-1.079-1.211-1.411
			c-0.51-0.332-1.102-0.548-1.777-0.647s-1.389-0.149-2.141-0.149h-0.863v-2.855h12.451l24.338,37.586v-30.115
			c0-0.996-0.15-1.798-0.449-2.407c-0.299-0.608-0.703-1.079-1.211-1.411c-0.51-0.332-1.102-0.548-1.777-0.647
			s-1.389-0.149-2.141-0.149h-0.896v-2.855h17.066v2.855h-0.863c-0.775,0-1.5,0.056-2.176,0.166
			c-0.676,0.111-1.268,0.338-1.775,0.681c-0.51,0.343-0.908,0.836-1.195,1.478c-0.289,0.642-0.432,1.494-0.432,2.557v40.807H526.939
			z"/>
		<linearGradient id="SVGID_10_" gradientUnits="userSpaceOnUse" x1="63.4233" y1="195.2217" x2="573.3906" y2="195.2217">
			<stop  offset="0" style="stop-color:#B57E10"/>
			<stop  offset="0.0947" style="stop-color:#E5C35C"/>
			<stop  offset="0.1398" style="stop-color:#F9DF7B"/>
			<stop  offset="0.2581" style="stop-color:#FFF3A6"/>
			<stop  offset="0.3602" style="stop-color:#F9DF7B"/>
			<stop  offset="0.4892" style="stop-color:#B57E10"/>
			<stop  offset="0.573" style="stop-color:#E5C35C"/>
			<stop  offset="0.6129" style="stop-color:#F9DF7B"/>
			<stop  offset="0.7204" style="stop-color:#FFF3A6"/>
			<stop  offset="0.8387" style="stop-color:#F9DF7B"/>
			<stop  offset="1" style="stop-color:#B57E10"/>
		</linearGradient>
		<path fill="url(#SVGID_10_)" d="M564.824,215.359c0-0.885,0.109-1.621,0.332-2.208c0.221-0.586,0.525-1.057,0.912-1.411
			c0.387-0.354,0.842-0.608,1.361-0.764c0.52-0.155,1.08-0.232,1.678-0.232c0.574,0,1.123,0.078,1.643,0.232
			c0.52,0.155,0.975,0.41,1.361,0.764c0.387,0.354,0.697,0.825,0.93,1.411c0.232,0.587,0.35,1.323,0.35,2.208
			c0,0.863-0.117,1.594-0.35,2.191s-0.543,1.074-0.93,1.428c-0.387,0.354-0.842,0.608-1.361,0.764
			c-0.52,0.155-1.068,0.232-1.643,0.232c-0.598,0-1.158-0.078-1.678-0.232c-0.52-0.155-0.975-0.409-1.361-0.764
			c-0.387-0.354-0.691-0.83-0.912-1.428C564.934,216.953,564.824,216.223,564.824,215.359z M565.156,170.967h7.902l-2.391,34.863
			h-3.121L565.156,170.967z"/>
	</g>
</g>
<g>
	<rect x="161.083" y="250.178" fill="none" width="317.833" height="61.992"/>
	<path fill="#FFFFFF" d="M194.18,310.178h-11.289v-43.516l-13.477,4.18v-9.18l23.555-8.438h1.211V310.178z"/>
	<path fill="#FFFFFF" d="M216.68,315.061h-8.398l20.938-61.758h8.398L216.68,315.061z"/>
	<path fill="#FFFFFF" d="M281.523,310.178h-38.984v-7.734l18.398-19.609c2.526-2.76,4.395-5.169,5.605-7.227
		c1.211-2.057,1.816-4.01,1.816-5.859c0-2.525-0.638-4.512-1.914-5.957c-1.276-1.445-3.099-2.168-5.469-2.168
		c-2.552,0-4.564,0.879-6.035,2.637c-1.472,1.758-2.207,4.069-2.207,6.934h-11.328c0-3.463,0.827-6.627,2.48-9.492
		c1.653-2.864,3.991-5.11,7.012-6.738c3.021-1.627,6.445-2.441,10.273-2.441c5.859,0,10.41,1.406,13.652,4.219
		s4.863,6.784,4.863,11.914c0,2.813-0.729,5.678-2.188,8.594c-1.458,2.917-3.958,6.315-7.5,10.195l-12.93,13.633h24.453V310.178z"/>
	<path fill="#FFFFFF" d="M330.781,290.373h-21.992v-9.102h21.992V290.373z"/>
	<path fill="#FFFFFF" d="M386.719,310.178H375.43v-43.516l-13.477,4.18v-9.18l23.555-8.438h1.211V310.178z"/>
	<path fill="#FFFFFF" d="M409.219,315.061h-8.398l20.938-61.758h8.398L409.219,315.061z"/>
	<path fill="#FFFFFF" d="M474.063,310.178h-38.984v-7.734l18.398-19.609c2.525-2.76,4.395-5.169,5.605-7.227
		c1.211-2.057,1.816-4.01,1.816-5.859c0-2.525-0.639-4.512-1.914-5.957s-3.1-2.168-5.469-2.168c-2.553,0-4.564,0.879-6.035,2.637
		s-2.207,4.069-2.207,6.934h-11.328c0-3.463,0.826-6.627,2.48-9.492c1.654-2.864,3.99-5.11,7.012-6.738
		c3.021-1.627,6.445-2.441,10.273-2.441c5.859,0,10.41,1.406,13.652,4.219s4.863,6.784,4.863,11.914
		c0,2.813-0.729,5.678-2.188,8.594c-1.459,2.917-3.959,6.315-7.5,10.195l-12.93,13.633h24.453V310.178z"/>
</g>
</svg>
