<?xml version="1.0" encoding="utf-8"?>
<!-- Generator: Adobe Illustrator 15.1.0, SVG Export Plug-In . SVG Version: 6.00 Build 0)  -->
<!DOCTYPE svg PUBLIC "-//W3C//DTD SVG 1.0//EN" "http://www.w3.org/TR/2001/REC-SVG-20010904/DTD/svg10.dtd">
<svg version="1.0" id="Layer_1" xmlns="http://www.w3.org/2000/svg" xmlns:xlink="http://www.w3.org/1999/xlink" x="0px" y="0px"
	 width="640px" height="480px" viewBox="0 0 640 480" enable-background="new 0 0 640 480" xml:space="preserve">
<g>
	<g>
		<linearGradient id="SVGID_1_" gradientUnits="userSpaceOnUse" x1="155.6274" y1="194.5215" x2="477.2988" y2="194.5215">
			<stop  offset="0" style="stop-color:#B57E10"/>
			<stop  offset="0.0947" style="stop-color:#E5C35C"/>
			<stop  offset="0.1398" style="stop-color:#F9DF7B"/>
			<stop  offset="0.2581" style="stop-color:#FFF3A6"/>
			<stop  offset="0.3602" style="stop-color:#F9DF7B"/>
			<stop  offset="0.4892" style="stop-color:#B57E10"/>
			<stop  offset="0.573" style="stop-color:#E5C35C"/>
			<stop  offset="0.6129" style="stop-color:#F9DF7B"/>
			<stop  offset="0.7204" style="stop-color:#FFF3A6"/>
			<stop  offset="0.8387" style="stop-color:#F9DF7B"/>
			<stop  offset="1" style="stop-color:#B57E10"/>
		</linearGradient>
		<path fill="url(#SVGID_1_)" d="M176.014,218.843l-14.676-42.102c-0.244-0.708-0.509-1.295-0.797-1.76
			c-0.288-0.465-0.62-0.83-0.996-1.096c-0.376-0.266-0.808-0.454-1.295-0.564c-0.487-0.11-1.063-0.166-1.727-0.166h-0.896V170.3
			h18.693v2.855h-1.561c-1.373,0-2.396,0.26-3.071,0.78c-0.675,0.521-1.013,1.345-1.013,2.474c0,0.376,0.05,0.764,0.149,1.162
			s0.238,0.853,0.415,1.361l7.471,22.08c0.686,2.015,1.272,3.968,1.76,5.86c0.487,1.893,0.918,3.658,1.295,5.296
			c0.354-1.638,0.774-3.375,1.262-5.213c0.487-1.837,1.106-3.818,1.859-5.943l7.504-21.615c0.177-0.553,0.321-1.084,0.432-1.594
			c0.11-0.509,0.166-0.952,0.166-1.328c0-1.173-0.371-2.02-1.112-2.54c-0.742-0.52-1.865-0.78-3.37-0.78h-1.561V170.3h16.568v2.855
			h-1.295c-0.664,0-1.234,0.066-1.71,0.199c-0.476,0.133-0.908,0.393-1.295,0.78c-0.388,0.388-0.747,0.924-1.079,1.61
			c-0.332,0.687-0.687,1.583-1.063,2.689l-14.078,40.408H176.014z"/>
		<linearGradient id="SVGID_2_" gradientUnits="userSpaceOnUse" x1="155.6274" y1="194.5215" x2="477.2988" y2="194.5215">
			<stop  offset="0" style="stop-color:#B57E10"/>
			<stop  offset="0.0947" style="stop-color:#E5C35C"/>
			<stop  offset="0.1398" style="stop-color:#F9DF7B"/>
			<stop  offset="0.2581" style="stop-color:#FFF3A6"/>
			<stop  offset="0.3602" style="stop-color:#F9DF7B"/>
			<stop  offset="0.4892" style="stop-color:#B57E10"/>
			<stop  offset="0.573" style="stop-color:#E5C35C"/>
			<stop  offset="0.6129" style="stop-color:#F9DF7B"/>
			<stop  offset="0.7204" style="stop-color:#FFF3A6"/>
			<stop  offset="0.8387" style="stop-color:#F9DF7B"/>
			<stop  offset="1" style="stop-color:#B57E10"/>
		</linearGradient>
		<path fill="url(#SVGID_2_)" d="M204.104,218.843v-2.855h0.863c0.774,0,1.5-0.055,2.175-0.166c0.675-0.11,1.267-0.337,1.776-0.681
			c0.509-0.343,0.907-0.835,1.195-1.478c0.288-0.642,0.432-1.494,0.432-2.557v-33.07c0-1.063-0.144-1.915-0.432-2.557
			c-0.288-0.642-0.687-1.134-1.195-1.478c-0.509-0.343-1.102-0.57-1.776-0.681c-0.675-0.11-1.4-0.166-2.175-0.166h-0.863V170.3
			h19.789v2.855h-0.896c-0.753,0-1.472,0.056-2.158,0.166c-0.687,0.111-1.278,0.338-1.776,0.681
			c-0.498,0.343-0.896,0.836-1.195,1.478c-0.299,0.642-0.448,1.494-0.448,2.557v33.07c0,1.063,0.149,1.915,0.448,2.557
			c0.299,0.642,0.697,1.135,1.195,1.478c0.498,0.343,1.09,0.57,1.776,0.681c0.686,0.111,1.405,0.166,2.158,0.166h0.896v2.855
			H204.104z"/>
		<linearGradient id="SVGID_3_" gradientUnits="userSpaceOnUse" x1="155.6274" y1="194.5215" x2="477.2988" y2="194.5215">
			<stop  offset="0" style="stop-color:#B57E10"/>
			<stop  offset="0.0947" style="stop-color:#E5C35C"/>
			<stop  offset="0.1398" style="stop-color:#F9DF7B"/>
			<stop  offset="0.2581" style="stop-color:#FFF3A6"/>
			<stop  offset="0.3602" style="stop-color:#F9DF7B"/>
			<stop  offset="0.4892" style="stop-color:#B57E10"/>
			<stop  offset="0.573" style="stop-color:#E5C35C"/>
			<stop  offset="0.6129" style="stop-color:#F9DF7B"/>
			<stop  offset="0.7204" style="stop-color:#FFF3A6"/>
			<stop  offset="0.8387" style="stop-color:#F9DF7B"/>
			<stop  offset="1" style="stop-color:#B57E10"/>
		</linearGradient>
		<path fill="url(#SVGID_3_)" d="M252.182,169.603c2.324,0,4.344,0.194,6.06,0.581c1.715,0.388,3.143,0.924,4.283,1.61
			c1.14,0.687,1.992,1.494,2.557,2.424s0.847,1.937,0.847,3.021c0,0.73-0.149,1.389-0.448,1.976
			c-0.299,0.587-0.714,1.085-1.245,1.494c-0.531,0.41-1.157,0.725-1.876,0.946c-0.72,0.222-1.5,0.332-2.341,0.332
			c0-1.063-0.139-2.114-0.415-3.154c-0.277-1.04-0.73-1.976-1.361-2.806s-1.45-1.505-2.457-2.025c-1.007-0.52-2.252-0.78-3.735-0.78
			c-2.568,0-4.748,0.471-6.541,1.411c-1.793,0.941-3.254,2.313-4.383,4.117c-1.129,1.804-1.948,4.029-2.457,6.674
			c-0.509,2.646-0.764,5.672-0.764,9.081c0,3.033,0.266,5.811,0.797,8.334s1.372,4.688,2.523,6.491
			c1.151,1.804,2.617,3.204,4.399,4.2c1.782,0.996,3.923,1.494,6.425,1.494c1.66,0,3.126-0.16,4.399-0.481
			c1.272-0.321,2.396-0.747,3.37-1.278c0.974-0.531,1.832-1.146,2.573-1.843c0.741-0.697,1.4-1.422,1.976-2.175
			c0.376,0.244,0.686,0.576,0.93,0.996c0.243,0.421,0.365,0.974,0.365,1.66c0,0.863-0.293,1.743-0.88,2.64
			c-0.587,0.896-1.478,1.71-2.673,2.44s-2.712,1.334-4.549,1.81c-1.837,0.476-4.018,0.714-6.541,0.714
			c-3.387,0-6.364-0.598-8.932-1.793c-2.568-1.195-4.721-2.889-6.458-5.08c-1.738-2.191-3.049-4.825-3.935-7.902
			c-0.886-3.077-1.328-6.485-1.328-10.227c0-3.674,0.465-7.039,1.395-10.094s2.308-5.678,4.134-7.869s4.101-3.896,6.823-5.113
			C245.442,170.211,248.596,169.603,252.182,169.603z"/>
		<linearGradient id="SVGID_4_" gradientUnits="userSpaceOnUse" x1="155.6274" y1="194.5215" x2="477.2988" y2="194.5215">
			<stop  offset="0" style="stop-color:#B57E10"/>
			<stop  offset="0.0947" style="stop-color:#E5C35C"/>
			<stop  offset="0.1398" style="stop-color:#F9DF7B"/>
			<stop  offset="0.2581" style="stop-color:#FFF3A6"/>
			<stop  offset="0.3602" style="stop-color:#F9DF7B"/>
			<stop  offset="0.4892" style="stop-color:#B57E10"/>
			<stop  offset="0.573" style="stop-color:#E5C35C"/>
			<stop  offset="0.6129" style="stop-color:#F9DF7B"/>
			<stop  offset="0.7204" style="stop-color:#FFF3A6"/>
			<stop  offset="0.8387" style="stop-color:#F9DF7B"/>
			<stop  offset="1" style="stop-color:#B57E10"/>
		</linearGradient>
		<path fill="url(#SVGID_4_)" d="M292.424,211.106c0,1.063,0.149,1.915,0.448,2.557c0.299,0.642,0.697,1.135,1.195,1.478
			c0.498,0.343,1.09,0.57,1.776,0.681c0.686,0.111,1.405,0.166,2.158,0.166h1.561v2.855h-21.15v-2.855h1.561
			c0.752,0,1.466-0.05,2.142-0.149c0.675-0.1,1.267-0.304,1.776-0.614c0.509-0.31,0.913-0.769,1.212-1.378
			c0.299-0.608,0.448-1.411,0.448-2.407v-37.752h-6.508c-0.996,0-1.832,0.149-2.507,0.448c-0.675,0.299-1.229,0.703-1.66,1.212
			c-0.432,0.509-0.753,1.102-0.963,1.776c-0.21,0.675-0.36,1.389-0.448,2.142l-0.365,2.922h-3.52l0.332-11.887h38.283l0.332,11.887
			h-3.52l-0.332-2.922c-0.089-0.752-0.244-1.466-0.465-2.142c-0.222-0.675-0.543-1.267-0.963-1.776
			c-0.421-0.509-0.975-0.913-1.66-1.212c-0.687-0.299-1.539-0.448-2.557-0.448h-6.607V211.106z"/>
		<linearGradient id="SVGID_5_" gradientUnits="userSpaceOnUse" x1="155.6274" y1="194.5215" x2="477.2988" y2="194.5215">
			<stop  offset="0" style="stop-color:#B57E10"/>
			<stop  offset="0.0947" style="stop-color:#E5C35C"/>
			<stop  offset="0.1398" style="stop-color:#F9DF7B"/>
			<stop  offset="0.2581" style="stop-color:#FFF3A6"/>
			<stop  offset="0.3602" style="stop-color:#F9DF7B"/>
			<stop  offset="0.4892" style="stop-color:#B57E10"/>
			<stop  offset="0.573" style="stop-color:#E5C35C"/>
			<stop  offset="0.6129" style="stop-color:#F9DF7B"/>
			<stop  offset="0.7204" style="stop-color:#FFF3A6"/>
			<stop  offset="0.8387" style="stop-color:#F9DF7B"/>
			<stop  offset="1" style="stop-color:#B57E10"/>
		</linearGradient>
		<path fill="url(#SVGID_5_)" d="M355.111,194.505c0,3.741-0.465,7.15-1.395,10.227c-0.93,3.077-2.303,5.711-4.117,7.902
			s-4.051,3.885-6.707,5.08s-5.699,1.793-9.131,1.793c-3.607,0-6.752-0.598-9.43-1.793s-4.903-2.889-6.673-5.08
			c-1.771-2.191-3.1-4.831-3.984-7.919c-0.886-3.088-1.328-6.513-1.328-10.276c0-3.763,0.442-7.177,1.328-10.243
			c0.885-3.065,2.213-5.683,3.984-7.853c1.771-2.169,4.005-3.846,6.707-5.03c2.701-1.184,5.855-1.776,9.463-1.776
			c3.432,0,6.463,0.592,9.098,1.776c2.635,1.185,4.859,2.867,6.674,5.047c1.814,2.181,3.188,4.804,4.117,7.869
			C354.646,187.294,355.111,190.72,355.111,194.505z M319.883,194.505c0,3.365,0.249,6.37,0.747,9.015
			c0.499,2.646,1.299,4.881,2.407,6.707s2.541,3.221,4.301,4.184s3.9,1.444,6.424,1.444s4.666-0.481,6.426-1.444
			s3.188-2.357,4.283-4.184s1.887-4.062,2.373-6.707c0.486-2.645,0.73-5.65,0.73-9.015c0-3.364-0.244-6.369-0.73-9.015
			c-0.486-2.645-1.277-4.875-2.373-6.69c-1.096-1.815-2.514-3.198-4.25-4.15c-1.738-0.952-3.869-1.428-6.393-1.428
			s-4.67,0.476-6.441,1.428c-1.771,0.952-3.215,2.335-4.332,4.15c-1.119,1.815-1.926,4.045-2.424,6.69
			C320.132,188.136,319.883,191.141,319.883,194.505z"/>
		<linearGradient id="SVGID_6_" gradientUnits="userSpaceOnUse" x1="155.6274" y1="194.5215" x2="477.2988" y2="194.5215">
			<stop  offset="0" style="stop-color:#B57E10"/>
			<stop  offset="0.0947" style="stop-color:#E5C35C"/>
			<stop  offset="0.1398" style="stop-color:#F9DF7B"/>
			<stop  offset="0.2581" style="stop-color:#FFF3A6"/>
			<stop  offset="0.3602" style="stop-color:#F9DF7B"/>
			<stop  offset="0.4892" style="stop-color:#B57E10"/>
			<stop  offset="0.573" style="stop-color:#E5C35C"/>
			<stop  offset="0.6129" style="stop-color:#F9DF7B"/>
			<stop  offset="0.7204" style="stop-color:#FFF3A6"/>
			<stop  offset="0.8387" style="stop-color:#F9DF7B"/>
			<stop  offset="1" style="stop-color:#B57E10"/>
		</linearGradient>
		<path fill="url(#SVGID_6_)" d="M396.682,210.542c1.15,1.815,2.27,3.177,3.354,4.084c1.084,0.908,2.346,1.361,3.785,1.361h0.199
			v2.855h-0.963c-2.125,0-3.867-0.077-5.229-0.232c-1.361-0.155-2.52-0.454-3.471-0.896c-0.951-0.442-1.766-1.063-2.439-1.859
			c-0.676-0.797-1.4-1.837-2.176-3.121l-9.197-15.307H374.9v14.012c0,0.996,0.15,1.799,0.449,2.407
			c0.299,0.609,0.701,1.068,1.211,1.378c0.51,0.31,1.102,0.515,1.777,0.614c0.674,0.1,1.389,0.149,2.141,0.149h0.896v2.855h-19.789
			v-2.855h0.863c0.752,0,1.467-0.05,2.143-0.149c0.674-0.1,1.266-0.304,1.775-0.614c0.51-0.31,0.914-0.769,1.213-1.378
			c0.299-0.608,0.447-1.411,0.447-2.407v-33.668c0-0.996-0.148-1.798-0.447-2.407c-0.299-0.608-0.703-1.079-1.213-1.411
			s-1.102-0.548-1.775-0.647c-0.676-0.1-1.391-0.149-2.143-0.149h-0.863V170.3h18.295c5.889,0,10.271,1.09,13.148,3.271
			c2.877,2.181,4.316,5.462,4.316,9.845c0,1.815-0.293,3.403-0.879,4.765c-0.588,1.361-1.357,2.54-2.309,3.536
			s-2.025,1.826-3.221,2.49s-2.391,1.195-3.586,1.594L396.682,210.542z M374.9,194.239h4.781c1.992,0,3.652-0.221,4.98-0.664
			c1.328-0.442,2.391-1.106,3.188-1.992c0.797-0.885,1.367-1.992,1.711-3.32c0.342-1.328,0.514-2.877,0.514-4.648
			c0-1.815-0.188-3.359-0.564-4.632c-0.377-1.272-0.984-2.313-1.826-3.121c-0.842-0.808-1.932-1.395-3.27-1.76
			c-1.34-0.365-2.973-0.548-4.898-0.548H374.9V194.239z"/>
		<linearGradient id="SVGID_7_" gradientUnits="userSpaceOnUse" x1="155.6274" y1="194.5215" x2="477.2988" y2="194.5215">
			<stop  offset="0" style="stop-color:#B57E10"/>
			<stop  offset="0.0947" style="stop-color:#E5C35C"/>
			<stop  offset="0.1398" style="stop-color:#F9DF7B"/>
			<stop  offset="0.2581" style="stop-color:#FFF3A6"/>
			<stop  offset="0.3602" style="stop-color:#F9DF7B"/>
			<stop  offset="0.4892" style="stop-color:#B57E10"/>
			<stop  offset="0.573" style="stop-color:#E5C35C"/>
			<stop  offset="0.6129" style="stop-color:#F9DF7B"/>
			<stop  offset="0.7204" style="stop-color:#FFF3A6"/>
			<stop  offset="0.8387" style="stop-color:#F9DF7B"/>
			<stop  offset="1" style="stop-color:#B57E10"/>
		</linearGradient>
		<path fill="url(#SVGID_7_)" d="M412.387,218.843v-2.855h1.561c0.752,0,1.467-0.05,2.143-0.149c0.674-0.1,1.266-0.304,1.775-0.614
			c0.51-0.31,0.914-0.769,1.213-1.378c0.299-0.608,0.447-1.411,0.447-2.407v-12.85l-12.584-21.848
			c-0.377-0.642-0.73-1.189-1.063-1.644c-0.332-0.454-0.68-0.824-1.045-1.112c-0.365-0.288-0.77-0.498-1.213-0.631
			s-0.951-0.199-1.527-0.199h-0.863V170.3h18.693v2.855H417.4c-0.619,0-1.123,0.056-1.51,0.166
			c-0.389,0.111-0.693,0.266-0.914,0.465s-0.371,0.432-0.447,0.697c-0.078,0.266-0.117,0.542-0.117,0.83
			c0,0.642,0.139,1.284,0.416,1.926c0.275,0.642,0.547,1.207,0.813,1.693l5.014,9.098c0.797,1.395,1.473,2.772,2.025,4.134
			s1.018,2.573,1.395,3.636c0.199-0.487,0.449-1.029,0.748-1.627s0.631-1.234,0.996-1.909c0.365-0.675,0.746-1.372,1.145-2.092
			c0.398-0.719,0.797-1.433,1.195-2.142l4.35-7.803c0.443-0.774,0.758-1.511,0.947-2.208c0.188-0.697,0.281-1.322,0.281-1.876
			c0-0.996-0.354-1.743-1.063-2.241s-1.715-0.747-3.021-0.747h-1.992V170.3h16.602v2.855h-0.797c-0.486,0-0.945,0.083-1.377,0.249
			s-0.869,0.454-1.313,0.863c-0.443,0.41-0.902,0.952-1.377,1.627c-0.477,0.675-1.002,1.522-1.578,2.54l-11.422,20.154v12.518
			c0,1.063,0.145,1.915,0.432,2.557c0.287,0.642,0.686,1.135,1.195,1.478c0.51,0.343,1.102,0.57,1.777,0.681
			c0.674,0.111,1.389,0.166,2.141,0.166h1.594v2.855H412.387z"/>
		<linearGradient id="SVGID_8_" gradientUnits="userSpaceOnUse" x1="155.6274" y1="194.5215" x2="477.2988" y2="194.5215">
			<stop  offset="0" style="stop-color:#B57E10"/>
			<stop  offset="0.0947" style="stop-color:#E5C35C"/>
			<stop  offset="0.1398" style="stop-color:#F9DF7B"/>
			<stop  offset="0.2581" style="stop-color:#FFF3A6"/>
			<stop  offset="0.3602" style="stop-color:#F9DF7B"/>
			<stop  offset="0.4892" style="stop-color:#B57E10"/>
			<stop  offset="0.573" style="stop-color:#E5C35C"/>
			<stop  offset="0.6129" style="stop-color:#F9DF7B"/>
			<stop  offset="0.7204" style="stop-color:#FFF3A6"/>
			<stop  offset="0.8387" style="stop-color:#F9DF7B"/>
			<stop  offset="1" style="stop-color:#B57E10"/>
		</linearGradient>
		<path fill="url(#SVGID_8_)" d="M468.732,214.692c0-0.885,0.111-1.621,0.332-2.208c0.221-0.586,0.525-1.057,0.914-1.411
			c0.387-0.354,0.84-0.608,1.361-0.764c0.52-0.155,1.078-0.232,1.676-0.232c0.576,0,1.123,0.078,1.645,0.232
			c0.52,0.155,0.973,0.41,1.361,0.764c0.387,0.354,0.697,0.825,0.93,1.411c0.232,0.587,0.348,1.323,0.348,2.208
			c0,0.863-0.115,1.594-0.348,2.191s-0.543,1.074-0.93,1.428c-0.389,0.354-0.842,0.608-1.361,0.764
			c-0.521,0.155-1.068,0.232-1.645,0.232c-0.598,0-1.156-0.078-1.676-0.232c-0.521-0.155-0.975-0.409-1.361-0.764
			c-0.389-0.354-0.693-0.83-0.914-1.428S468.732,215.556,468.732,214.692z M469.064,170.3h7.902l-2.391,34.863h-3.121L469.064,170.3
			z"/>
	</g>
</g>
<g>
	<rect x="227.5" y="249.511" fill="none" width="185.001" height="63.326"/>
	<path fill="#FFFFFF" d="M280.821,285.995c0,7.864-1.628,13.88-4.883,18.047c-3.256,4.167-8.021,6.25-14.297,6.25
		c-6.198,0-10.938-2.044-14.219-6.133s-4.961-9.948-5.039-17.578v-10.469c0-7.942,1.646-13.972,4.941-18.086
		c3.294-4.114,8.04-6.172,14.238-6.172c6.197,0,10.938,2.038,14.219,6.113s4.961,9.929,5.039,17.559V285.995z M269.532,274.484
		c0-4.717-0.645-8.152-1.934-10.303s-3.301-3.226-6.035-3.226c-2.656,0-4.616,1.023-5.879,3.069c-1.264,2.047-1.934,5.246-2.012,9.6
		v13.842c0,4.639,0.631,8.087,1.895,10.342c1.263,2.254,3.287,3.382,6.074,3.382c2.76,0,4.752-1.081,5.977-3.245
		c1.224-2.163,1.861-5.474,1.914-9.932V274.484z"/>
	<path fill="#FFFFFF" d="M330.781,289.706H308.79v-9.102h21.992V289.706z"/>
	<path fill="#FFFFFF" d="M386.719,309.511H375.43v-43.516l-13.477,4.18v-9.18l23.555-8.438h1.211V309.511z"/>
</g>
</svg>
