<?xml version="1.0" encoding="utf-8"?>
<!-- Generator: Adobe Illustrator 15.1.0, SVG Export Plug-In . SVG Version: 6.00 Build 0)  -->
<!DOCTYPE svg PUBLIC "-//W3C//DTD SVG 1.0//EN" "http://www.w3.org/TR/2001/REC-SVG-20010904/DTD/svg10.dtd">
<svg version="1.0" id="Layer_1" xmlns="http://www.w3.org/2000/svg" xmlns:xlink="http://www.w3.org/1999/xlink" x="0px" y="0px"
	 width="640px" height="480px" viewBox="0 0 640 480" enable-background="new 0 0 640 480" xml:space="preserve">
<g>
	<path fill="#F7E4EE" d="M640,257.449c-1.616,1.627-3.393,3.113-5.354,4.409c-11.779,7.78-27.007,7.471-40.731-0.825
		c-9.449-5.713-19.639-6.121-27.249-1.094c-6.343,4.189-9.915,11.505-10.037,20.155c-0.042,3.081-2.245,5.702-5.295,6.132
		l-0.251,0.035c-3.032,0.429-5.829-1.398-6.757-4.119c-0.214-0.628-0.328-1.304-0.323-2.01c0.096-12.941,5.71-24.119,15.71-30.723
		c11.779-7.781,27.004-7.472,40.731,0.824c9.449,5.713,19.636,6.123,27.249,1.094c7.611-5.026,11.231-14.556,9.689-25.491
		c-1.155-8.184-0.188-15.893,2.618-22.517v-43.287c-1.443,0.543-2.832,1.235-4.14,2.099c-7.614,5.027-11.234,14.558-9.692,25.493
		c2.245,15.88-3.448,30.006-15.228,37.786c-11.779,7.779-27.007,7.471-40.731-0.825c-9.452-5.713-19.639-6.123-27.249-1.096
		c-1.428,0.942-2.715,2.043-3.854,3.282c-4.936,5.368-7.091,13.325-5.838,22.21c0.458,3.234-1.626,6.241-4.729,7.007
		c-0.207,0.052-0.418,0.093-0.634,0.123c-3.451,0.486-6.642-1.916-7.131-5.366c-2.242-15.88,3.454-30.007,15.23-37.785
		c0.003-0.001,0,0,0-0.001c11.779-7.779,27.007-7.471,40.731,0.826c9.452,5.711,19.639,6.121,27.249,1.093
		c7.611-5.027,11.234-14.555,9.689-25.49c-2.242-15.88,3.454-30.009,15.23-37.786c3.443-2.274,7.187-3.837,11.096-4.731V0H0v235.719
		c4.449-4.417,9.753-8.122,15.824-10.817c26.743-11.874,58.048,0.181,69.921,26.923c11.874,26.742-0.181,58.047-26.923,69.921
		c-20.544,9.122-43.771,4.11-58.822-10.821V480h43.842l10.476-24.43l17.636-41.127l26.798,35.838L120.977,480h120.923l-6.54-63.996
		l22.626-2.313c-3.176-15.303-1.218-31.111,5.781-45.326c8.311-16.883,22.727-29.527,40.587-35.604
		c17.863-6.076,36.996-4.843,53.878,3.468c2.273,1.119,3.975,3.058,4.791,5.456c0.816,2.399,0.65,4.972-0.47,7.245
		c-1.12,2.275-3.058,3.976-5.456,4.791c-2.398,0.816-4.972,0.65-7.245-0.47c-25.519-12.563-56.501-2.023-69.064,23.495
		c-5.558,11.288-6.586,23.644-3.805,35.003l94.756-9.685L379.704,480H640V257.449z M90.566,0c0.408,3.106,0.322,6.33-0.341,9.572
		c-3.204,15.67-18.505,25.776-34.176,22.573C41.057,29.079,31.167,14.94,33.144,0H90.566z M291.719,171.553L205.926,7.005
		l-0.421-0.808L202.274,0h14.257l184.324,0l-9.04,14.21L291.719,171.553z"/>
	<path fill="#3F3E3E" d="M56.049,32.145c15.67,3.204,30.972-6.902,34.176-22.573C90.888,6.331,90.974,3.106,90.566,0H33.144
		C31.167,14.94,41.057,29.079,56.049,32.145z"/>
	<polygon fill="#FDBFBC" points="202.274,0 205.505,6.197 205.926,7.005 216.531,0 	"/>
	<path fill="#FFBE4D" d="M58.822,321.745c26.742-11.874,38.797-43.179,26.923-69.921c-11.873-26.742-43.178-38.797-69.921-26.923
		c-6.071,2.695-11.375,6.4-15.824,10.817v75.205C15.051,325.855,38.277,330.867,58.822,321.745z"/>
	<polygon fill="#FFFFFF" points="71.954,414.443 54.318,455.57 43.842,480 120.977,480 98.752,450.281 	"/>
	<path fill="#FFBE4D" d="M613.674,189.39c1.545,10.935-2.078,20.463-9.689,25.49c-7.61,5.028-17.797,4.619-27.249-1.093
		c-13.725-8.297-28.952-8.605-40.731-0.826c0,0.001,0.003,0,0,0.001c-11.776,7.777-17.473,21.905-15.23,37.785
		c0.489,3.45,3.68,5.853,7.131,5.366c0.216-0.03,0.427-0.071,0.634-0.123c3.104-0.766,5.188-3.772,4.729-7.007
		c-1.253-8.886,0.902-16.843,5.838-22.21c1.14-1.239,2.427-2.34,3.854-3.282c7.61-5.027,17.797-4.618,27.249,1.096
		c13.725,8.295,28.952,8.604,40.731,0.825c11.779-7.78,17.473-21.906,15.228-37.786c-1.542-10.935,2.078-20.466,9.692-25.493
		c1.308-0.864,2.696-1.555,4.14-2.099v-13.161c-3.909,0.895-7.652,2.457-11.096,4.731
		C617.128,159.381,611.432,173.51,613.674,189.39z"/>
	<path fill="#937AB9" d="M276.983,411.75c3.505,14.318,13.07,27.054,27.3,34.06c2.272,1.119,3.974,3.057,4.79,5.456
		c0.816,2.398,0.649,4.973-0.469,7.246c-0.754,1.53-1.88,2.803-3.267,3.72c-0.672,0.444-1.407,0.805-2.19,1.071
		c-2.399,0.816-4.972,0.648-7.245-0.47c-16.882-8.313-29.527-22.728-35.603-40.589c-0.96-2.823-1.717-5.68-2.313-8.553
		l-22.626,2.313l6.54,63.996h137.805l-7.965-77.935L276.983,411.75z"/>
	<path fill="#FFBE4D" d="M637.382,225.837c1.542,10.935-2.078,20.464-9.689,25.491c-7.613,5.029-17.8,4.619-27.249-1.094
		c-13.728-8.296-28.952-8.605-40.731-0.824c-10,6.604-15.614,17.781-15.71,30.723c-0.005,0.706,0.109,1.382,0.323,2.01
		c0.928,2.721,3.725,4.548,6.757,4.119l0.251-0.035c3.05-0.43,5.253-3.051,5.295-6.132c0.122-8.65,3.694-15.966,10.037-20.155
		c7.61-5.027,17.8-4.619,27.249,1.094c13.725,8.296,28.952,8.605,40.731,0.825c1.962-1.296,3.738-2.782,5.354-4.409v-54.128
		C637.193,209.944,636.227,217.654,637.382,225.837z"/>
	<path fill="#3F3E3E" d="M295.901,462.833c2.273,1.118,4.846,1.286,7.245,0.47c0.784-0.267,1.518-0.627,2.19-1.071
		c1.387-0.917,2.513-2.189,3.267-3.72c1.119-2.273,1.285-4.848,0.469-7.246c-0.816-2.399-2.518-4.337-4.79-5.456
		c-14.229-7.006-23.794-19.741-27.3-34.06c-2.781-11.359-1.752-23.715,3.805-35.003c12.563-25.519,43.545-36.058,69.064-23.495
		c2.273,1.12,4.847,1.286,7.245,0.47c2.398-0.815,4.336-2.516,5.456-4.791c1.12-2.273,1.286-4.846,0.47-7.245
		c-0.816-2.398-2.518-4.337-4.791-5.456c-16.883-8.311-36.016-9.544-53.878-3.468c-17.861,6.076-32.276,18.721-40.587,35.604
		c-6.999,14.215-8.957,30.023-5.781,45.326c0.596,2.873,1.353,5.729,2.313,8.553C266.375,440.105,279.02,454.52,295.901,462.833z"/>
	<polygon fill="#FDBFBC" points="216.531,0 205.926,7.005 291.719,171.553 391.815,14.21 400.855,0 	"/>
</g>
<g>
	<g>
		<rect x="88.787" y="194.333" fill="none" width="462.427" height="36.994"/>
		<path fill="#231F20" d="M121.45,211.57h13.594v17.766c-2.203,0.719-4.277,1.223-6.223,1.512s-3.934,0.434-5.965,0.434
			c-5.172,0-9.121-1.52-11.848-4.559c-2.727-3.039-4.09-7.402-4.09-13.09c0-5.531,1.582-9.844,4.746-12.938s7.551-4.641,13.16-4.641
			c3.516,0,6.906,0.703,10.172,2.109l-2.414,5.813c-2.5-1.25-5.102-1.875-7.805-1.875c-3.141,0-5.656,1.055-7.547,3.164
			s-2.836,4.945-2.836,8.508c0,3.719,0.762,6.559,2.285,8.52c1.523,1.961,3.738,2.941,6.645,2.941c1.516,0,3.055-0.156,4.617-0.469
			v-7.148h-6.492V211.57z"/>
		<path fill="#231F20" d="M154.497,231.281c-4.219,0-7.516-1.164-9.891-3.492c-2.375-2.328-3.563-5.625-3.563-9.891
			c0-4.391,1.098-7.785,3.293-10.184c2.195-2.398,5.23-3.598,9.105-3.598c3.703,0,6.586,1.055,8.648,3.164s3.094,5.024,3.094,8.742
			v3.469h-16.898c0.078,2.031,0.68,3.618,1.805,4.758c1.125,1.141,2.703,1.711,4.734,1.711c1.578,0,3.07-0.164,4.477-0.492
			s2.875-0.852,4.406-1.57v5.531c-1.25,0.625-2.586,1.09-4.008,1.395S156.543,231.281,154.497,231.281z M153.489,209.203
			c-1.516,0-2.703,0.48-3.563,1.441s-1.352,2.324-1.477,4.09h10.031c-0.031-1.766-0.492-3.129-1.383-4.09
			S155.004,209.203,153.489,209.203z"/>
		<path fill="#231F20" d="M182.856,231.281c-4.219,0-7.516-1.164-9.891-3.492c-2.375-2.328-3.563-5.625-3.563-9.891
			c0-4.391,1.098-7.785,3.293-10.184c2.195-2.398,5.23-3.598,9.105-3.598c3.703,0,6.586,1.055,8.648,3.164s3.094,5.024,3.094,8.742
			v3.469h-16.898c0.078,2.031,0.68,3.618,1.805,4.758c1.125,1.141,2.703,1.711,4.734,1.711c1.578,0,3.07-0.164,4.477-0.492
			s2.875-0.852,4.406-1.57v5.531c-1.25,0.625-2.586,1.09-4.008,1.395S184.903,231.281,182.856,231.281z M181.848,209.203
			c-1.516,0-2.703,0.48-3.563,1.441s-1.352,2.324-1.477,4.09h10.031c-0.031-1.766-0.492-3.129-1.383-4.09
			S183.364,209.203,181.848,209.203z"/>
		<path fill="#231F20" d="M211.215,231.281c-4.219,0-7.516-1.164-9.891-3.492c-2.375-2.328-3.563-5.625-3.563-9.891
			c0-4.391,1.098-7.785,3.293-10.184c2.195-2.398,5.23-3.598,9.105-3.598c3.703,0,6.586,1.055,8.648,3.164s3.094,5.024,3.094,8.742
			v3.469h-16.898c0.078,2.031,0.68,3.618,1.805,4.758c1.125,1.141,2.703,1.711,4.734,1.711c1.578,0,3.07-0.164,4.477-0.492
			s2.875-0.852,4.406-1.57v5.531c-1.25,0.625-2.586,1.09-4.008,1.395S213.262,231.281,211.215,231.281z M210.208,209.203
			c-1.516,0-2.703,0.48-3.563,1.441s-1.352,2.324-1.477,4.09H215.2c-0.031-1.766-0.492-3.129-1.383-4.09
			S211.723,209.203,210.208,209.203z"/>
		<path fill="#231F20" d="M234.583,216.563l3.117-3.984l7.336-7.969h8.063l-10.406,11.367l11.039,14.836h-8.25l-7.547-10.617
			l-3.07,2.461v8.156h-7.148v-36.469h7.148v16.266l-0.375,5.953H234.583z"/>
		<path fill="#231F20" d="M253.731,204.609h7.828l4.945,14.742c0.422,1.281,0.711,2.797,0.867,4.547h0.141
			c0.172-1.609,0.508-3.125,1.008-4.547l4.852-14.742h7.664l-11.086,29.555c-1.016,2.734-2.465,4.781-4.348,6.141
			s-4.082,2.039-6.598,2.039c-1.234,0-2.445-0.133-3.633-0.398v-5.672c0.859,0.203,1.797,0.305,2.813,0.305
			c1.266,0,2.371-0.387,3.316-1.16s1.684-1.942,2.215-3.504l0.422-1.289L253.731,204.609z"/>
		<path fill="#231F20" d="M285.348,196.547h10.664c4.859,0,8.387,0.691,10.582,2.074s3.293,3.583,3.293,6.598
			c0,2.047-0.48,3.727-1.441,5.039s-2.238,2.102-3.832,2.367v0.234c2.172,0.484,3.738,1.391,4.699,2.719
			c0.961,1.328,1.441,3.094,1.441,5.297c0,3.125-1.129,5.563-3.387,7.313c-2.258,1.75-5.324,2.625-9.199,2.625h-12.82V196.547z
			 M292.614,210.117h4.219c1.969,0,3.395-0.305,4.277-0.914s1.324-1.617,1.324-3.023c0-1.313-0.48-2.253-1.441-2.824
			c-0.961-0.57-2.48-0.855-4.559-0.855h-3.82V210.117z M292.614,215.883v8.93h4.734c2,0,3.477-0.383,4.43-1.148
			c0.953-0.765,1.43-1.937,1.43-3.516c0-2.844-2.031-4.266-6.094-4.266H292.614z"/>
		<path fill="#231F20" d="M340.848,217.664c0,4.266-1.125,7.602-3.375,10.008c-2.25,2.406-5.383,3.609-9.398,3.609
			c-2.516,0-4.734-0.551-6.656-1.652c-1.921-1.102-3.398-2.684-4.429-4.746s-1.547-4.468-1.547-7.219
			c0-4.281,1.117-7.609,3.352-9.984c2.234-2.375,5.375-3.563,9.421-3.563c2.516,0,4.734,0.547,6.656,1.641
			c1.922,1.094,3.398,2.664,4.43,4.711C340.332,212.516,340.848,214.914,340.848,217.664z M322.73,217.664
			c0,2.594,0.426,4.555,1.277,5.883c0.852,1.328,2.238,1.992,4.16,1.992c1.906,0,3.277-0.66,4.113-1.98
			c0.836-1.32,1.254-3.285,1.254-5.895c0-2.593-0.422-4.539-1.266-5.836c-0.844-1.297-2.227-1.945-4.148-1.945
			c-1.906,0-3.281,0.645-4.125,1.934S322.73,215.055,322.73,217.664z"/>
		<path fill="#231F20" d="M342.535,204.609h7.828l4.945,14.742c0.422,1.281,0.711,2.797,0.867,4.547h0.141
			c0.172-1.609,0.508-3.125,1.008-4.547l4.852-14.742h7.664l-11.086,29.555c-1.016,2.734-2.465,4.781-4.348,6.141
			s-4.082,2.039-6.598,2.039c-1.234,0-2.445-0.133-3.633-0.398v-5.672c0.859,0.203,1.797,0.305,2.813,0.305
			c1.266,0,2.371-0.387,3.316-1.16s1.684-1.942,2.215-3.504l0.422-1.289L342.535,204.609z"/>
		<path fill="#231F20" d="M406.848,221.297c0,3.094-1.113,5.531-3.34,7.313s-5.324,2.672-9.293,2.672
			c-3.656,0-6.891-0.688-9.703-2.063v-6.75c2.313,1.031,4.27,1.758,5.871,2.18s3.066,0.633,4.395,0.633
			c1.594,0,2.816-0.305,3.668-0.914s1.277-1.515,1.277-2.719c0-0.671-0.188-1.269-0.563-1.793c-0.375-0.523-0.926-1.027-1.652-1.512
			c-0.727-0.484-2.207-1.257-4.441-2.32c-2.094-0.984-3.664-1.93-4.711-2.836c-1.047-0.906-1.883-1.96-2.508-3.164
			c-0.625-1.203-0.938-2.609-0.938-4.219c0-3.031,1.027-5.414,3.082-7.148s4.895-2.602,8.52-2.602c1.781,0,3.48,0.211,5.098,0.633
			s3.309,1.016,5.074,1.781l-2.344,5.648c-1.828-0.75-3.34-1.273-4.535-1.57c-1.195-0.296-2.371-0.445-3.527-0.445
			c-1.375,0-2.43,0.32-3.164,0.961c-0.734,0.641-1.102,1.477-1.102,2.508c0,0.641,0.148,1.199,0.445,1.676
			c0.297,0.477,0.77,0.938,1.418,1.383s2.184,1.246,4.605,2.402c3.203,1.532,5.398,3.067,6.586,4.605
			C406.254,217.176,406.848,219.063,406.848,221.297z"/>
		<path fill="#231F20" d="M423.535,225.586c1.25,0,2.75-0.273,4.5-0.82v5.32c-1.781,0.797-3.969,1.195-6.563,1.195
			c-2.859,0-4.941-0.723-6.246-2.168c-1.305-1.445-1.957-3.613-1.957-6.504v-12.633h-3.422v-3.023l3.938-2.391l2.063-5.531h4.57
			v5.578h7.336v5.367h-7.336v12.633c0,1.016,0.285,1.766,0.855,2.25C421.844,225.344,422.598,225.586,423.535,225.586z"/>
		<path fill="#231F20" d="M451.895,230.813l-0.961-3.352h-0.375c-0.766,1.219-1.852,2.16-3.258,2.824s-3.008,0.996-4.805,0.996
			c-3.078,0-5.398-0.824-6.961-2.473c-1.563-1.648-2.344-4.02-2.344-7.113v-17.086h7.148v15.305c0,1.891,0.336,3.309,1.008,4.254
			c0.672,0.946,1.742,1.418,3.211,1.418c2,0,3.445-0.668,4.336-2.004s1.336-3.551,1.336-6.645v-12.328h7.148v26.203H451.895z"/>
		<path fill="#231F20" d="M473.176,231.281c-3.078,0-5.496-1.195-7.254-3.586s-2.637-5.703-2.637-9.938
			c0-4.297,0.895-7.644,2.684-10.043c1.789-2.398,4.254-3.598,7.395-3.598c3.297,0,5.813,1.281,7.547,3.844h0.234
			c-0.359-1.953-0.539-3.695-0.539-5.227v-8.391h7.172v36.469h-5.484l-1.383-3.398h-0.305
			C478.98,229.992,476.504,231.281,473.176,231.281z M475.684,225.586c1.828,0,3.168-0.531,4.02-1.594
			c0.852-1.063,1.316-2.867,1.395-5.414v-0.773c0-2.813-0.434-4.828-1.301-6.047s-2.277-1.828-4.23-1.828
			c-1.594,0-2.832,0.676-3.715,2.027c-0.883,1.352-1.324,3.316-1.324,5.895s0.445,4.512,1.336,5.801
			S474.027,225.586,475.684,225.586z"/>
		<path fill="#231F20" d="M494.949,197.836c0-2.328,1.297-3.492,3.891-3.492s3.891,1.164,3.891,3.492c0,1.11-0.324,1.973-0.973,2.59
			c-0.648,0.618-1.621,0.926-2.918,0.926C496.246,201.352,494.949,200.18,494.949,197.836z M502.402,230.813h-7.148v-26.203h7.148
			V230.813z"/>
		<path fill="#231F20" d="M533.715,217.664c0,4.266-1.125,7.602-3.375,10.008c-2.25,2.406-5.383,3.609-9.398,3.609
			c-2.516,0-4.734-0.551-6.656-1.652s-3.398-2.684-4.43-4.746s-1.547-4.468-1.547-7.219c0-4.281,1.117-7.609,3.352-9.984
			c2.234-2.375,5.375-3.563,9.422-3.563c2.516,0,4.734,0.547,6.656,1.641c1.922,1.094,3.398,2.664,4.43,4.711
			C533.199,212.516,533.715,214.914,533.715,217.664z M515.598,217.664c0,2.594,0.426,4.555,1.277,5.883
			c0.852,1.328,2.238,1.992,4.16,1.992c1.906,0,3.277-0.66,4.113-1.98c0.836-1.32,1.254-3.285,1.254-5.895
			c0-2.593-0.422-4.539-1.266-5.836c-0.844-1.297-2.227-1.945-4.148-1.945c-1.906,0-3.281,0.645-4.125,1.934
			S515.598,215.055,515.598,217.664z"/>
	</g>
	<g>
		<rect x="254.243" y="259.992" fill="none" width="131.514" height="25.676"/>
		<path fill="#231F20" d="M265.508,284.625c-2.302,0-4.073-0.828-5.313-2.484h-0.188l0.063,0.641
			c0.083,0.813,0.125,1.536,0.125,2.172V292h-2.813v-24.844h2.313l0.375,2.344h0.125c0.667-0.938,1.438-1.615,2.313-2.031
			c0.875-0.417,1.885-0.625,3.031-0.625c2.229,0,3.961,0.773,5.195,2.32s1.852,3.727,1.852,6.539c0,2.802-0.62,4.989-1.859,6.563
			C269.487,283.838,267.747,284.625,265.508,284.625z M265.039,269.203c-1.698,0-2.925,0.479-3.68,1.438
			c-0.755,0.958-1.144,2.463-1.164,4.516v0.547c0,2.322,0.385,4.002,1.156,5.039c0.771,1.036,2.021,1.555,3.75,1.555
			c1.438,0,2.56-0.584,3.367-1.75c0.807-1.167,1.211-2.792,1.211-4.875c0-2.094-0.404-3.695-1.211-4.805
			C267.661,269.758,266.518,269.203,265.039,269.203z"/>
		<path fill="#231F20" d="M285.07,266.844c0.76,0,1.432,0.063,2.016,0.188l-0.344,2.594c-0.636-0.146-1.255-0.219-1.859-0.219
			c-0.906,0-1.748,0.25-2.523,0.75c-0.776,0.5-1.383,1.189-1.82,2.07c-0.438,0.88-0.656,1.856-0.656,2.93v9.156h-2.813v-17.156
			h2.313l0.313,3.141h0.125c0.656-1.136,1.432-1.995,2.328-2.578C283.044,267.135,284.018,266.844,285.07,266.844z"/>
		<path fill="#231F20" d="M297.273,284.625c-2.573,0-4.591-0.779-6.055-2.336c-1.464-1.558-2.195-3.701-2.195-6.43
			c0-2.75,0.682-4.94,2.047-6.57c1.364-1.631,3.208-2.445,5.531-2.445c2.156,0,3.875,0.695,5.156,2.086s1.922,3.273,1.922,5.648
			v1.703h-11.75c0.052,1.947,0.547,3.427,1.484,4.438c0.938,1.01,2.266,1.516,3.984,1.516c0.917,0,1.786-0.081,2.609-0.242
			c0.823-0.162,1.786-0.477,2.891-0.945v2.469c-0.948,0.406-1.839,0.692-2.672,0.859
			C299.393,284.541,298.409,284.625,297.273,284.625z M296.57,269.141c-1.344,0-2.406,0.432-3.188,1.297
			c-0.781,0.864-1.245,2.067-1.391,3.609h8.734c-0.021-1.604-0.391-2.823-1.109-3.656
			C298.898,269.557,297.883,269.141,296.57,269.141z"/>
		<path fill="#231F20" d="M319.195,279.578c0,1.604-0.599,2.846-1.797,3.727c-1.198,0.88-2.88,1.32-5.047,1.32
			c-2.261,0-4.058-0.359-5.391-1.078v-2.563c1.885,0.916,3.703,1.375,5.453,1.375c1.417,0,2.448-0.229,3.094-0.688
			c0.646-0.459,0.969-1.073,0.969-1.844c0-0.678-0.31-1.25-0.93-1.719c-0.62-0.469-1.722-1.006-3.305-1.609
			c-1.615-0.625-2.75-1.159-3.406-1.602c-0.656-0.443-1.138-0.94-1.445-1.492c-0.308-0.553-0.461-1.225-0.461-2.016
			c0-1.406,0.573-2.516,1.719-3.328c1.146-0.813,2.719-1.219,4.719-1.219c1.948,0,3.771,0.385,5.469,1.156l-0.953,2.234
			c-1.74-0.729-3.308-1.094-4.703-1.094c-1.167,0-2.052,0.185-2.656,0.555c-0.604,0.369-0.906,0.877-0.906,1.523
			c0,0.625,0.26,1.143,0.781,1.555c0.521,0.411,1.734,0.981,3.641,1.711c1.427,0.531,2.481,1.025,3.164,1.484
			c0.682,0.458,1.185,0.974,1.508,1.547C319.034,278.088,319.195,278.775,319.195,279.578z"/>
		<path fill="#231F20" d="M330.648,284.625c-2.573,0-4.592-0.779-6.055-2.336c-1.464-1.558-2.195-3.701-2.195-6.43
			c0-2.75,0.682-4.94,2.047-6.57c1.364-1.631,3.208-2.445,5.531-2.445c2.156,0,3.875,0.695,5.156,2.086s1.922,3.273,1.922,5.648
			v1.703h-11.75c0.052,1.947,0.547,3.427,1.484,4.438c0.938,1.01,2.266,1.516,3.984,1.516c0.916,0,1.786-0.081,2.609-0.242
			c0.822-0.162,1.786-0.477,2.891-0.945v2.469c-0.948,0.406-1.839,0.692-2.672,0.859
			C332.768,284.541,331.783,284.625,330.648,284.625z M329.945,269.141c-1.344,0-2.406,0.432-3.188,1.297
			c-0.781,0.864-1.245,2.067-1.391,3.609h8.734c-0.021-1.604-0.391-2.823-1.109-3.656
			C332.273,269.557,331.258,269.141,329.945,269.141z"/>
		<path fill="#231F20" d="M353.086,284.313v-10.969c0-1.396-0.311-2.436-0.93-3.117c-0.62-0.683-1.592-1.023-2.914-1.023
			c-1.761,0-3.039,0.486-3.836,1.461c-0.797,0.974-1.195,2.56-1.195,4.758v8.891h-2.813v-17.156h2.266l0.422,2.344h0.156
			c0.531-0.844,1.275-1.498,2.234-1.961c0.958-0.464,2.016-0.695,3.172-0.695c2.104,0,3.666,0.51,4.688,1.531
			c1.021,1.021,1.531,2.609,1.531,4.766v11.172H353.086z"/>
		<path fill="#231F20" d="M366.914,282.328c0.364,0,0.791-0.037,1.281-0.109c0.489-0.073,0.859-0.156,1.109-0.25v2.156
			c-0.261,0.114-0.664,0.227-1.211,0.336s-1.102,0.164-1.664,0.164c-3.354,0-5.031-1.766-5.031-5.297v-9.984h-2.422V268l2.453-1.125
			l1.125-3.656h1.672v3.938h4.953v2.188h-4.953v9.906c0,0.989,0.236,1.75,0.711,2.281
			C365.411,282.063,366.07,282.328,366.914,282.328z"/>
		<path fill="#231F20" d="M383.898,279.578c0,1.604-0.6,2.846-1.797,3.727c-1.198,0.88-2.881,1.32-5.047,1.32
			c-2.261,0-4.058-0.359-5.391-1.078v-2.563c1.885,0.916,3.703,1.375,5.453,1.375c1.416,0,2.447-0.229,3.094-0.688
			c0.646-0.459,0.969-1.073,0.969-1.844c0-0.678-0.311-1.25-0.93-1.719c-0.62-0.469-1.722-1.006-3.305-1.609
			c-1.615-0.625-2.75-1.159-3.406-1.602c-0.656-0.443-1.139-0.94-1.445-1.492c-0.308-0.553-0.461-1.225-0.461-2.016
			c0-1.406,0.572-2.516,1.719-3.328c1.146-0.813,2.719-1.219,4.719-1.219c1.947,0,3.771,0.385,5.469,1.156l-0.953,2.234
			c-1.74-0.729-3.308-1.094-4.703-1.094c-1.167,0-2.053,0.185-2.656,0.555c-0.604,0.369-0.906,0.877-0.906,1.523
			c0,0.625,0.26,1.143,0.781,1.555c0.521,0.411,1.734,0.981,3.641,1.711c1.427,0.531,2.481,1.025,3.164,1.484
			c0.682,0.458,1.185,0.974,1.508,1.547C383.736,278.088,383.898,278.775,383.898,279.578z"/>
	</g>
</g>
</svg>
