<?xml version="1.0" encoding="utf-8"?>
<!-- Generator: Adobe Illustrator 15.1.0, SVG Export Plug-In . SVG Version: 6.00 Build 0)  -->
<!DOCTYPE svg PUBLIC "-//W3C//DTD SVG 1.1//EN" "http://www.w3.org/Graphics/SVG/1.1/DTD/svg11.dtd">
<svg version="1.1" id="Layer_1" xmlns="http://www.w3.org/2000/svg" xmlns:xlink="http://www.w3.org/1999/xlink" x="0px" y="0px"
	 width="35px" height="35px" viewBox="0 0 35 35" enable-background="new 0 0 35 35" xml:space="preserve">
<g>
	<g>
		<g>
			<path fill="#FFFFFF" stroke="#000000" stroke-width="0.8333" stroke-linejoin="round" d="M7.37,27.887
				c2.544-0.729,7.586,0.322,10.13-1.5c2.544,1.822,7.586,0.771,10.131,1.5c0,0,1.238,0.405,2.251,1.502
				c-0.51,0.729-1.237,0.742-2.251,0.375c-2.545-0.729-7.587,0.346-10.131-0.75c-2.544,1.096-7.586,0.021-10.13,0.75
				c-1.013,0.367-1.741,0.354-2.251-0.375C6.131,28.292,7.37,27.887,7.37,27.887z"/>
			<path fill="#FFFFFF" stroke="#000000" stroke-width="0.8333" stroke-linejoin="round" d="M11.872,24.885
				c1.876,1.877,9.38,1.877,11.256,0c0.375-1.125,0-1.5,0-1.5c0-1.876-1.876-3.002-1.876-3.002
				c4.127-1.126,4.503-8.629-3.752-11.631c-8.254,3.001-7.879,10.505-3.752,11.631c0,0-1.876,1.126-1.876,3.002
				C11.872,23.385,11.497,23.76,11.872,24.885z"/>
			<path fill="#FFFFFF" stroke="#000000" stroke-width="0.8333" stroke-linejoin="round" d="M19.376,6.876
				c0,1.036-0.84,1.876-1.876,1.876s-1.876-0.84-1.876-1.876S16.464,5,17.5,5S19.376,5.84,19.376,6.876z"/>
		</g>
		<path fill="none" stroke="#000000" stroke-width="0.8333" stroke-linecap="round" d="M13.748,20.383h7.504 M11.872,23.385h11.256"
			/>
	</g>
</g>
<circle fill="#1D1D1B" cx="17.5" cy="14.5" r="2.5"/>
</svg>
