<?xml version="1.0" encoding="utf-8"?>
<!-- Generator: Adobe Illustrator 15.1.0, SVG Export Plug-In . SVG Version: 6.00 Build 0)  -->
<!DOCTYPE svg PUBLIC "-//W3C//DTD SVG 1.1//EN" "http://www.w3.org/Graphics/SVG/1.1/DTD/svg11.dtd">
<svg version="1.1" id="Layer_1" xmlns="http://www.w3.org/2000/svg" xmlns:xlink="http://www.w3.org/1999/xlink" x="0px" y="0px"
	 width="35px" height="35px" viewBox="0 0 35 35" enable-background="new 0 0 35 35" xml:space="preserve">
<g>
	<g>
		<path id="path6570" fill="none" stroke="#000000" stroke-width="0.8333" stroke-linecap="round" d="M17.5,10.364V6.415"/>
		<path stroke="#000000" stroke-width="0.8333" d="M17.5,19.741c0,0,3.156-5.26,2.104-7.364c0,0-0.701-1.753-2.104-1.753
			c-1.402,0-2.104,1.753-2.104,1.753C14.344,14.481,17.5,19.741,17.5,19.741"/>
		<path stroke="#000000" stroke-width="0.8333" stroke-linecap="round" stroke-linejoin="round" d="M10.486,28.158
			c3.857,2.455,10.17,2.455,14.028,0v-4.909c0,0,6.313-3.156,4.209-7.364c-2.807-4.56-9.471-2.455-11.224,2.804v2.455v-2.455
			c-1.753-5.259-8.417-7.363-11.222-2.804c-2.104,4.208,4.208,7.364,4.208,7.364L10.486,28.158"/>
		<path fill="none" stroke="#FFFFFF" stroke-width="0.8333" stroke-linecap="round" stroke-linejoin="round" d="M24.164,22.896
			c0,0,5.961-2.805,4.229-6.768c-2.722-4.104-9.14-1.298-10.893,3.262v1.473v-1.473c-1.753-4.56-8.171-7.365-10.893-3.262
			c-1.733,3.963,4.23,6.768,4.23,6.768"/>
		<path fill="none" stroke="#FFFFFF" stroke-width="0.8333" stroke-linecap="round" stroke-linejoin="round" d="M10.486,23.249
			c3.857-2.104,10.17-2.104,14.028,0 M10.486,25.704c3.857-2.104,10.17-2.104,14.028,0 M10.486,28.158
			c3.857-2.104,10.17-2.104,14.028,0"/>
	</g>
</g>
<circle fill="#1D1D1B" cx="17.5" cy="6.887" r="1.887"/>
</svg>
