<?xml version="1.0" encoding="utf-8"?>
<!-- Generator: Adobe Illustrator 15.1.0, SVG Export Plug-In . SVG Version: 6.00 Build 0)  -->
<!DOCTYPE svg PUBLIC "-//W3C//DTD SVG 1.1//EN" "http://www.w3.org/Graphics/SVG/1.1/DTD/svg11.dtd">
<svg version="1.1" id="Layer_1" xmlns="http://www.w3.org/2000/svg" xmlns:xlink="http://www.w3.org/1999/xlink" x="0px" y="0px"
	 width="35px" height="35px" viewBox="0 0 35 35" enable-background="new 0 0 35 35" xml:space="preserve">
<g>
	<g>
		<path fill="#FFFFFF" stroke="#000000" stroke-width="0.8333" stroke-linecap="round" stroke-linejoin="round" d="M17.489,7.344
			c8.203,0.781,12.89,6.25,12.5,22.656H12.02c0-7.031,7.812-5.078,6.25-16.406"/>
		<path fill="#FFFFFF" stroke="#000000" stroke-width="0.8333" stroke-linecap="round" stroke-linejoin="round" d="M19.051,13.594
			c0.297,2.273-4.335,5.757-6.25,7.031c-2.344,1.563-2.203,3.391-3.906,3.125c-0.814-0.734,1.102-2.375,0-2.344
			c-0.781,0,0.148,0.961-0.781,1.563c-0.781,0-3.127,0.781-3.125-3.125c0-1.563,4.688-9.375,4.688-9.375s1.477-1.484,1.563-2.734
			c-0.57-0.777-0.391-1.563-0.391-2.344c0.781-0.781,2.344,1.953,2.344,1.953h1.563c0,0,0.609-1.557,1.953-2.344
			c0.781,0,0.781,2.344,0.781,2.344"/>
		<path stroke="#000000" stroke-width="0.8333" stroke-linecap="round" stroke-linejoin="round" d="M7.723,19.453
			c0,0.216-0.174,0.391-0.391,0.391c-0.216,0-0.391-0.175-0.391-0.391c0-0.217,0.175-0.391,0.391-0.391
			C7.549,19.063,7.723,19.236,7.723,19.453z"/>
		<path stroke="#000000" stroke-width="0.8333" stroke-linecap="round" stroke-linejoin="round" d="M11.968,11.836
			c-0.324,0.561-0.737,0.927-0.924,0.819c-0.187-0.107-0.076-0.649,0.248-1.21c0.323-0.561,0.737-0.927,0.924-0.819
			C12.402,10.733,12.292,11.275,11.968,11.836z"/>
	</g>
</g>
</svg>
