<?xml version="1.0" encoding="utf-8"?>
<!-- Generator: Adobe Illustrator 15.1.0, SVG Export Plug-In . SVG Version: 6.00 Build 0)  -->
<!DOCTYPE svg PUBLIC "-//W3C//DTD SVG 1.1//EN" "http://www.w3.org/Graphics/SVG/1.1/DTD/svg11.dtd">
<svg version="1.1" id="Layer_1" xmlns="http://www.w3.org/2000/svg" xmlns:xlink="http://www.w3.org/1999/xlink" x="0px" y="0px"
	 width="35px" height="35px" viewBox="0 0 35 35" enable-background="new 0 0 35 35" xml:space="preserve">
<g>
	<g>
		<path stroke="#000000" stroke-width="0.8333" stroke-linecap="round" stroke-linejoin="round" d="M17.489,7.308
			c8.076,0.77,12.691,6.154,12.307,22.308H12.104c0-6.923,7.691-5,6.153-16.154"/>
		<path stroke="#000000" stroke-width="0.8333" stroke-linecap="round" stroke-linejoin="round" d="M19.027,13.461
			c0.291,2.239-4.27,5.669-6.153,6.923c-2.308,1.538-2.169,3.339-3.846,3.077c-0.802-0.723,1.084-2.339,0-2.309
			c-0.77,0,0.146,0.947-0.77,1.539c-0.769,0-3.079,0.77-3.077-3.078c0-1.537,4.615-9.229,4.615-9.229s1.454-1.461,1.539-2.692
			c-0.562-0.765-0.385-1.539-0.385-2.308c0.769-0.77,2.308,1.923,2.308,1.923h1.539c0,0,0.6-1.532,1.923-2.308
			c0.77,0,0.77,2.308,0.77,2.308"/>
		<path fill="#FFFFFF" stroke="#FFFFFF" stroke-width="0.8333" stroke-linecap="round" stroke-linejoin="round" d="M7.874,19.23
			c0,0.213-0.172,0.385-0.385,0.385c-0.213,0-0.385-0.172-0.385-0.385s0.172-0.385,0.385-0.385
			C7.702,18.846,7.874,19.02,7.874,19.23z"/>
		<path fill="#FFFFFF" stroke="#FFFFFF" stroke-width="0.8333" stroke-linecap="round" stroke-linejoin="round" d="M12.053,11.731
			c-0.319,0.552-0.726,0.913-0.91,0.807s-0.075-0.64,0.244-1.191c0.319-0.551,0.726-0.913,0.91-0.807S12.372,11.179,12.053,11.731z"
			/>
		<path fill="#FFFFFF" d="M19.45,7.615l-0.347,1.116l0.385,0.115c2.424,0.769,4.347,1.915,6.076,5.192
			c1.73,3.277,2.5,7.931,2.115,15.577L27.643,30h1.73l0.039-0.385c0.384-7.738-0.678-12.961-2.5-16.415
			c-1.823-3.454-4.454-5.108-7.069-5.508L19.45,7.615z"/>
	</g>
</g>
</svg>
