<?xml version="1.0" encoding="utf-8"?>
<!-- Generator: Adobe Illustrator 15.1.0, SVG Export Plug-In . SVG Version: 6.00 Build 0)  -->
<!DOCTYPE svg PUBLIC "-//W3C//DTD SVG 1.1//EN" "http://www.w3.org/Graphics/SVG/1.1/DTD/svg11.dtd">
<svg version="1.1" id="Layer_1" xmlns="http://www.w3.org/2000/svg" xmlns:xlink="http://www.w3.org/1999/xlink" x="0px" y="0px"
	 width="35px" height="35px" viewBox="0 0 35 35" enable-background="new 0 0 35 35" xml:space="preserve">
<g>
	<path stroke="#000000" stroke-width="0.8333" stroke-linecap="round" d="M17.5,5c-1.812,0-3.278,1.467-3.278,3.279
		c0,0.729,0.237,1.401,0.639,1.951c-1.598,0.918-2.688,2.631-2.688,4.606c0,1.664,0.77,3.147,1.975,4.122
		c-2.459,0.87-6.073,4.55-6.073,11.042h18.853c0-6.492-3.615-10.172-6.074-11.042c1.205-0.975,1.977-2.458,1.977-4.122
		c0-1.976-1.092-3.688-2.688-4.606c0.4-0.549,0.639-1.221,0.639-1.951C20.777,6.467,19.313,5,17.5,5z"/>
</g>
</svg>
