<?xml version="1.0" encoding="utf-8"?>
<!-- Generator: Adobe Illustrator 15.1.0, SVG Export Plug-In . SVG Version: 6.00 Build 0)  -->
<!DOCTYPE svg PUBLIC "-//W3C//DTD SVG 1.1//EN" "http://www.w3.org/Graphics/SVG/1.1/DTD/svg11.dtd">
<svg version="1.1" id="Layer_1" xmlns="http://www.w3.org/2000/svg" xmlns:xlink="http://www.w3.org/1999/xlink" x="0px" y="0px"
	 width="35px" height="35px" viewBox="0 0 35 35" enable-background="new 0 0 35 35" xml:space="preserve">
<g>
	<g>
		<path fill="#FFFFFF" stroke="#000000" stroke-width="0.8333" stroke-linecap="round" stroke-linejoin="round" d="M6.759,9.815
			c0,0.818-0.663,1.481-1.481,1.481c-0.818,0-1.481-0.664-1.481-1.481c0-0.818,0.663-1.481,1.481-1.481
			C6.096,8.334,6.759,8.997,6.759,9.815z"/>
		<path fill="#FFFFFF" stroke="#000000" stroke-width="0.8333" stroke-linecap="round" stroke-linejoin="round" d="M18.98,6.481
			c0,0.818-0.662,1.481-1.48,1.481c-0.818,0-1.481-0.662-1.481-1.481C16.019,5.664,16.682,5,17.5,5
			C18.318,5,18.98,5.664,18.98,6.481z"/>
		<path fill="#FFFFFF" stroke="#000000" stroke-width="0.8333" stroke-linecap="round" stroke-linejoin="round" d="M31.204,9.815
			c0,0.818-0.664,1.481-1.481,1.481c-0.818,0-1.48-0.664-1.48-1.481c0-0.818,0.662-1.481,1.48-1.481
			C30.54,8.333,31.204,8.997,31.204,9.815z"/>
		<path fill="#FFFFFF" stroke="#000000" stroke-width="0.8333" stroke-linecap="round" stroke-linejoin="round" d="M12.685,7.593
			c0,0.818-0.663,1.481-1.481,1.481c-0.817,0-1.481-0.664-1.481-1.481c0-0.818,0.664-1.481,1.481-1.481
			C12.021,6.111,12.685,6.774,12.685,7.593z"/>
		<path fill="#FFFFFF" stroke="#000000" stroke-width="0.8333" stroke-linecap="round" stroke-linejoin="round" d="M25.277,7.593
			c0,0.818-0.664,1.481-1.481,1.481s-1.481-0.664-1.481-1.481c0-0.818,0.664-1.481,1.481-1.481
			C24.613,6.111,25.277,6.774,25.277,7.593z"/>
		<path fill="#FFFFFF" stroke="#000000" stroke-width="0.8333" stroke-linejoin="round" d="M7.5,20.186c6.296-1.11,13.704-1.11,20,0
			l1.48-8.889l-5.186,8.148V9.074l-4.072,10L17.5,7.963l-2.223,11.111l-4.074-10v10.369l-5.185-8.147L7.5,20.186z"/>
		<path fill="#FFFFFF" stroke="#000000" stroke-width="0.8333" stroke-linejoin="round" d="M7.5,20.186
			c0,1.481,1.111,1.481,1.852,2.963c0.741,1.11,0.741,0.74,0.37,2.594c-1.11,0.74-0.74,1.852-0.74,1.852
			c-1.111,1.111,0,1.852,0,1.852c4.814,0.742,12.223,0.742,17.038,0c0,0,1.11-0.739,0-1.852c0,0,0.369-1.111-0.742-1.852
			c-0.369-1.854-0.369-1.482,0.371-2.594c0.74-1.48,1.853-1.48,1.853-2.963C21.204,19.074,13.796,19.074,7.5,20.186z"/>
		<path fill="none" stroke="#000000" stroke-width="0.8333" stroke-linecap="round" stroke-linejoin="round" d="M9.352,23.148
			c2.593-0.741,13.705-0.741,16.296,0"/>
		<path fill="none" stroke="#000000" stroke-width="0.8333" stroke-linecap="round" stroke-linejoin="round" d="M9.722,25.741
			c4.444-0.741,11.111-0.741,15.555,0"/>
	</g>
</g>
</svg>
