<?xml version="1.0" encoding="utf-8"?>
<!-- Generator: Adobe Illustrator 15.1.0, SVG Export Plug-In . SVG Version: 6.00 Build 0)  -->
<!DOCTYPE svg PUBLIC "-//W3C//DTD SVG 1.1//EN" "http://www.w3.org/Graphics/SVG/1.1/DTD/svg11.dtd">
<svg version="1.1" id="Layer_1" xmlns="http://www.w3.org/2000/svg" xmlns:xlink="http://www.w3.org/1999/xlink" x="0px" y="0px"
	 width="35px" height="35px" viewBox="0 0 35 35" enable-background="new 0 0 35 35" xml:space="preserve">
<g>
	<g>
		<g>
			<circle cx="5.778" cy="9.795" r="1.954"/>
			<circle cx="11.462" cy="7.664" r="1.953"/>
			<circle cx="17.5" cy="6.953" r="1.953"/>
			<circle cx="23.538" cy="7.664" r="1.953"/>
			<circle cx="29.221" cy="9.795" r="1.954"/>
		</g>
		<path stroke="#000000" stroke-width="0.8333" stroke-linejoin="round" d="M7.91,19.74c6.038-1.065,14.918-1.065,19.18,0
			l1.776-8.88l-5.328,8.169L23.325,9.013l-3.694,9.662L17.5,8.374l-2.131,10.301l-3.694-9.662l-0.213,10.016L6.134,10.86L7.91,19.74
			z"/>
		<path stroke="#000000" stroke-width="0.8333" stroke-linejoin="round" d="M7.91,19.74c0,1.421,1.065,1.421,1.775,2.841
			c0.711,1.065,0.711,0.711,0.355,2.485c-1.065,0.711-0.711,1.776-0.711,1.776c-1.065,1.065,0,1.775,0,1.775
			c4.618,0.711,11.722,0.711,16.339,0c0,0,1.064-0.71,0-1.775c0,0,0.355-1.065-0.71-1.776c-0.354-1.774-0.354-1.42,0.354-2.485
			c0.711-1.42,1.775-1.42,1.775-2.841C21.053,18.675,13.948,18.675,7.91,19.74z"/>
		<path fill="none" stroke="#000000" stroke-width="0.8333" stroke-linejoin="round" d="M9.33,28.619
			c5.291,1.841,11.049,1.841,16.339,0"/>
		<path fill="none" stroke="#FFFFFF" stroke-width="0.8333" stroke-linecap="round" stroke-linejoin="round" d="M9.33,21.871
			c5.291-1.842,11.049-1.842,16.339,0"/>
		<path fill="none" stroke="#FFFFFF" stroke-width="0.8333" stroke-linecap="round" stroke-linejoin="round" d="M10.396,23.646
			h14.208"/>
		<path fill="none" stroke="#FFFFFF" stroke-width="0.8333" stroke-linecap="round" stroke-linejoin="round" d="M9.686,25.777
			c5.074,1.681,10.555,1.681,15.628,0"/>
		<path fill="none" stroke="#FFFFFF" stroke-width="0.8333" stroke-linecap="round" stroke-linejoin="round" d="M8.976,27.909
			c5.505,2.009,11.543,2.009,17.049,0"/>
	</g>
</g>
</svg>
