<?xml version="1.0" encoding="utf-8"?>
<!-- Generator: Adobe Illustrator 15.1.0, SVG Export Plug-In . SVG Version: 6.00 Build 0)  -->
<!DOCTYPE svg PUBLIC "-//W3C//DTD SVG 1.1//EN" "http://www.w3.org/Graphics/SVG/1.1/DTD/svg11.dtd">
<svg version="1.1" id="Layer_1" xmlns="http://www.w3.org/2000/svg" xmlns:xlink="http://www.w3.org/1999/xlink" x="0px" y="0px"
	 width="35px" height="35px" viewBox="0 0 35 35" enable-background="new 0 0 35 35" xml:space="preserve">
<g>
	<g>
		<path stroke="#000000" stroke-width="0.8333" stroke-linejoin="round" d="M6.25,30h22.5v-2.5H6.25V30z"/>
		<path stroke="#000000" stroke-width="0.8333" stroke-linejoin="round" d="M9.167,24.167l1.25-2.084h14.167l1.25,2.084H9.167z"/>
		<path stroke="#000000" stroke-width="0.8333" stroke-linejoin="round" d="M8.75,27.5v-3.333h17.5V27.5H8.75z"/>
		<path stroke="#000000" stroke-width="0.8333" d="M10.417,22.083V11.25h14.167v10.833H10.417z"/>
		<path stroke="#000000" stroke-width="0.8333" stroke-linejoin="round" d="M10.417,11.25l-2.5-2.083h19.167l-2.5,2.083H10.417z"/>
		<path stroke="#000000" stroke-width="0.8333" stroke-linejoin="round" d="M7.917,9.167V5h3.333v1.667h4.167V5h4.167v1.667h4.167V5
			h3.333v4.167H7.917z"/>
		<path fill="none" stroke="#FFFFFF" stroke-width="0.8333" stroke-linecap="round" d="M8.75,27.083h17.5l0,0"/>
		<path fill="none" stroke="#FFFFFF" stroke-width="0.8333" stroke-linecap="round" d="M9.583,23.75h15.833"/>
		<path fill="none" stroke="#FFFFFF" stroke-width="0.8333" stroke-linecap="round" d="M10.417,22.083h14.167"/>
		<path fill="none" stroke="#FFFFFF" stroke-width="0.8333" stroke-linecap="round" d="M10.417,11.25h14.167"/>
		<path fill="none" stroke="#FFFFFF" stroke-width="0.8333" stroke-linecap="round" d="M7.917,9.167h19.167"/>
	</g>
</g>
</svg>
