<?xml version="1.0" encoding="utf-8"?>
<!-- Generator: Adobe Illustrator 15.1.0, SVG Export Plug-In . SVG Version: 6.00 Build 0)  -->
<!DOCTYPE svg PUBLIC "-//W3C//DTD SVG 1.0//EN" "http://www.w3.org/TR/2001/REC-SVG-20010904/DTD/svg10.dtd">
<svg version="1.0" id="Layer_1" xmlns="http://www.w3.org/2000/svg" xmlns:xlink="http://www.w3.org/1999/xlink" x="0px" y="0px"
	 width="35px" height="35px" viewBox="0 0 35 35" enable-background="new 0 0 35 35" xml:space="preserve">
<rect fill="#EBDAAC" width="35" height="35"/>
<g>
	<path fill="#E5CD91" d="M25.47,9.127c-4.547,1.102-9.163-0.095-13.795-0.719c4.174,0.977,8.563,1.708,13.063,0.903
		c0.968-0.155,1.97-0.291,3.034-0.407C26.971,8.97,26.186,9.042,25.47,9.127z"/>
	<path fill="#E5CD91" d="M11.041,7.024c0.594,0.143,1.193,0.276,1.795,0.402c1.819,0.155,3.641,0.329,5.461,0.454
		c-2.437-0.265-4.848-0.729-7.256-1.082c-3.268-0.529-6.436-0.03-9.6,0.694c1.075-0.173,2.151-0.275,3.229-0.332
		C6.766,6.804,8.881,6.667,11.041,7.024z"/>
	<path fill="#E5CD91" d="M24.331,7.993c0.678-0.072,1.372-0.149,2.103-0.222c-0.745,0.061-1.451,0.121-2.139,0.181
		c-0.299,0.034-0.596,0.045-0.894,0.066C23.711,8.01,24.021,8.008,24.331,7.993z"/>
	<path fill="#E5CD91" d="M12.01,10.156c2.191,0.652,4.43,0.955,6.664,1.052c-0.04-0.009-0.079-0.012-0.118-0.021
		c-1.025-0.305-2.047-0.548-3.063-0.74c-0.83-0.112-1.66-0.233-2.489-0.365c-0.66-0.07-1.317-0.117-1.973-0.144
		C11.356,9.995,11.683,10.066,12.01,10.156z"/>
	<path fill="#E5CD91" d="M22.333,32.987c-0.39-0.004-0.779-0.005-1.167-0.016c-0.576,0.019-1.151,0.026-1.727,0.02
		C20.4,33.007,21.365,33.002,22.333,32.987z"/>
	<path fill="#E5CD91" d="M8.833,10.738c0.803,0.015,1.617,0.085,2.45,0.242c4.361,0.825,8.484,1.668,12.886,1.072
		c0.673-0.111,1.364-0.226,2.039-0.347c-0.819,0.094-1.598,0.196-2.357,0.285c-2.681,0.334-5.31-0.093-7.944-0.54
		c-0.414-0.066-0.829-0.133-1.245-0.208C12.734,10.924,10.799,10.664,8.833,10.738z"/>
	<path fill="#E5CD91" d="M23.247,34.188c-0.634-0.019-1.269-0.053-1.904-0.113c-0.574-0.027-1.146-0.06-1.717-0.094
		c-1.523-0.049-3.044-0.153-4.564-0.323c-1.607-0.12-3.205-0.235-4.798-0.314c0.218,0.035,0.437,0.069,0.655,0.113
		c0.508,0.092,1.012,0.162,1.517,0.235c1.964,0.2,3.946,0.379,5.925,0.501C20.002,34.242,21.63,34.234,23.247,34.188z"/>
	<path fill="#E5CD91" d="M23.313,13.432c0.813-0.135,1.646-0.258,2.457-0.388c-0.831,0.088-1.654,0.177-2.421,0.264
		c-1.677,0.423-3.501,0.438-5.199,0.188C19.828,14.086,21.73,13.472,23.313,13.432z"/>
	<path fill="#E5CD91" d="M3.816,19.756c2.94,0.102,5.847,0.03,8.767-0.021H3.816c-0.331,0-0.66,0.008-0.989,0.009
		C3.16,19.749,3.499,19.756,3.816,19.756z"/>
	<path fill="#E5CD91" d="M10.794,5.768c0.531,0.094,1.058,0.167,1.585,0.242c1.882,0.193,3.781,0.365,5.677,0.487
		c1.627,0.057,3.24,0.055,4.844,0.013c-0.559-0.024-1.118-0.065-1.679-0.124c-0.53-0.025-1.059-0.054-1.585-0.085
		c-1.46-0.046-2.918-0.146-4.375-0.305c-1.693-0.126-3.375-0.248-5.052-0.331C10.405,5.698,10.6,5.728,10.794,5.768z"/>
	<path fill="#E5CD91" d="M6.419,34.918c0.328-0.038,0.656-0.068,0.987-0.088c-0.413,0.015-0.825,0.047-1.236,0.088H6.419z"/>
	<path fill="#E5CD91" d="M4.341,34.918c0.111-0.021,0.222-0.042,0.333-0.062c-0.286,0.017-0.571,0.038-0.857,0.062H4.341z"/>
	<path fill="#E5CD91" d="M4.674,34.856c1.066-0.059,2.134-0.068,3.203-0.044C7.72,34.817,7.563,34.82,7.406,34.83
		c0.289-0.011,0.577-0.014,0.867-0.01c0.035,0.001,0.069,0,0.104,0.002c0.473,0.009,0.949,0.043,1.426,0.096h0.385
		c-0.081-0.011-0.161-0.015-0.242-0.023c0.148,0.008,0.297,0.014,0.446,0.023h1.765c-0.332-0.074-0.666-0.146-0.996-0.226
		C8.962,34.336,6.809,34.485,4.674,34.856z"/>
	<path fill="#E5CD91" d="M2.347,34.918h0.417c2.766-0.568,5.543-0.885,8.397-0.412c0.888,0.126,1.775,0.269,2.664,0.412h0.768
		c-1.47-0.222-2.938-0.454-4.406-0.638C7.51,34.053,4.905,34.403,2.347,34.918z"/>
	<path fill="#E5CD91" d="M32.981,34.506c-1.031,0.11-2.068,0.253-3.109,0.412h5.08v-0.08c-0.966-0.026-1.931-0.021-2.896,0.049
		c0.966-0.103,1.932-0.189,2.896-0.256v-0.215C34.295,34.408,33.638,34.419,32.981,34.506z"/>
	<path fill="#E5CD91" d="M33.708,34.074c-0.908,0.123-1.821,0.288-2.738,0.412c-0.916,0.123-1.833,0.267-2.75,0.391
		c-0.146,0.018-0.295,0.025-0.441,0.041h0.417c2.254-0.269,4.51-0.522,6.757-0.619v-0.304
		C34.537,33.996,34.123,34.016,33.708,34.074z"/>
	<path fill="#E5CD91" d="M20.244,34.918c-2.488-0.168-4.976-0.496-7.488-0.747c2.219,0.352,4.403,0.63,6.603,0.747H20.244z"/>
	<path fill="#E5CD91" d="M31.289,34.3c1.22-0.126,2.44-0.242,3.663-0.323v-0.188c-0.738-0.015-1.476-0.01-2.213,0.08
		c-1.172,0.144-2.351,0.308-3.534,0.474c-1.43,0.145-2.689,0.289-3.926,0.433c-0.57,0.064-1.136,0.109-1.699,0.144h2.174
		c0.68-0.057,1.359-0.134,2.042-0.247C28.991,34.547,30.195,34.424,31.289,34.3z"/>
	<path fill="#E5CD91" d="M26.808,34.452c-1.327,0.158-2.656,0.23-3.985,0.24C24.148,34.706,25.476,34.637,26.808,34.452z"/>
	<path fill="#E5CD91" d="M26.808,34.452c0.032-0.004,0.063-0.005,0.096-0.009c0.551-0.061,1.09-0.138,1.63-0.213
		c-0.249,0.022-0.496,0.048-0.745,0.069C27.461,34.36,27.134,34.406,26.808,34.452z"/>
	<path fill="#E5CD91" d="M0.016,34.247v0.169c2.115-0.388,4.209-0.645,6.3-0.726c-2.119,0.134-4.212,0.516-6.3,0.96v0.17
		c1.919-0.381,3.836-0.68,5.753-0.834c-1.793,0.186-3.546,0.541-5.277,0.932h0.605c2.964-0.693,5.978-1.241,9.091-0.844
		c2.183,0.278,4.316,0.598,6.435,0.844h0.468c-1.995-0.192-3.978-0.477-5.93-0.844c-0.303-0.047-0.604-0.083-0.904-0.114
		c0.836,0.056,1.669,0.128,2.499,0.211c-0.609-0.097-1.221-0.198-1.837-0.303c-0.803-0.13-1.599-0.187-2.391-0.214
		c0.627-0.004,1.252,0.005,1.875,0.032c-0.072-0.008-0.144-0.017-0.215-0.024C6.759,33.225,3.331,33.618,0.016,34.247z"/>
	<path fill="#E5CD91" d="M10.404,33.687c4.142,0.464,8.284,1.036,12.418,1.006C18.696,34.651,14.587,33.869,10.404,33.687z"/>
	<path fill="#E5CD91" d="M29.101,34.156c-0.188,0.026-0.38,0.048-0.567,0.074c0.948-0.087,1.89-0.182,2.756-0.28
		c1.22-0.14,2.441-0.25,3.663-0.339V33.49C33.002,33.601,31.052,33.865,29.101,34.156z"/>
	<path fill="#E5CD91" d="M18.361,34.192c-1.979-0.122-3.961-0.301-5.925-0.501C14.437,33.98,16.409,34.133,18.361,34.192z"/>
	<path fill="#E5CD91" d="M10.264,33.343c1.593,0.079,3.19,0.194,4.798,0.314c-1.381-0.154-2.762-0.358-4.143-0.613
		c-3.805-0.603-7.364-0.029-10.903,0.587v0.028c1.349-0.19,2.694-0.31,4.037-0.368c-1.354,0.154-2.701,0.386-4.037,0.637v0.11
		c3.327-0.628,6.75-1.019,10.172-0.582c0.746,0.079,1.496,0.158,2.248,0.235c-0.504-0.073-1.008-0.144-1.517-0.235
		C10.701,33.412,10.482,33.378,10.264,33.343z"/>
	<path fill="#E5CD91" d="M15.062,33.657c1.52,0.17,3.041,0.274,4.564,0.323C18.093,33.887,16.573,33.771,15.062,33.657z"/>
	<path fill="#E5CD91" d="M31.285,33.436c1.222-0.139,2.444-0.27,3.667-0.383v-0.105c-1.23,0.084-2.464,0.204-3.699,0.342
		c-1.099,0.125-2.326,0.269-3.55,0.393C25,33.969,22.31,34.065,19.626,33.98c0.57,0.034,1.143,0.066,1.717,0.094
		c0.636,0.061,1.271,0.095,1.904,0.113c-1.617,0.047-3.245,0.055-4.886,0.005c3.18,0.197,6.352,0.242,9.423-0.058
		c1.199-0.123,2.411-0.246,3.501-0.391c1.222-0.15,2.444-0.299,3.667-0.434v-0.1c-1.19,0.104-2.391,0.241-3.599,0.389
		c-1.095,0.123-2.317,0.269-3.533,0.393c-0.524,0.027-1.051,0.053-1.577,0.078c0.518-0.063,1.03-0.148,1.536-0.265
		C28.983,33.701,30.195,33.578,31.285,33.436z"/>
	<path fill="#E5CD91" d="M0.016,33.165v0.167c3.555-0.628,7.106-1.095,10.903-0.494C7.131,32.238,3.586,32.599,0.016,33.165z"/>
	<path fill="#E5CD91" d="M27.687,33.578c-5.617,0.29-11.194,0.084-16.767-0.74c5.573,1.03,11.15,1.236,16.634,0.803
		c1.228-0.123,2.467-0.247,3.558-0.412c1.291-0.169,2.57-0.344,3.841-0.505v-0.015c-1.313,0.156-2.627,0.326-3.941,0.498
		C29.908,33.332,28.81,33.477,27.687,33.578z"/>
	<path fill="#E5CD91" d="M14.745,32.735c-1.137-0.223-2.267-0.376-3.391-0.466C12.491,32.472,13.62,32.625,14.745,32.735z"/>
	<path fill="#E5CD91" d="M0.016,32.451v0.591c3.586-0.552,7.124-1.015,10.903-0.431c5.573,0.845,11.15,1.463,16.642,0.701
		c1.228-0.105,2.459-0.249,3.554-0.412c1.288-0.184,2.566-0.368,3.837-0.548v-0.012c-1.313,0.178-2.627,0.356-3.941,0.517
		c-1.095,0.166-2.193,0.288-3.315,0.412c-5.626,0.393-11.203,0.187-16.776-0.844c-0.945-0.149-1.881-0.223-2.812-0.266
		c1.077-0.009,2.159,0.022,3.246,0.109c-0.145-0.025-0.289-0.043-0.434-0.07C7.202,31.625,3.603,31.965,0.016,32.451z"/>
	<path fill="#E5CD91" d="M7.059,31.685c1.276,0.014,2.561,0.104,3.86,0.31c1.251,0.189,2.49,0.354,3.725,0.495
		c-0.11-0.024-0.222-0.037-0.333-0.063C11.919,31.871,9.493,31.676,7.059,31.685z"/>
	<path fill="#E5CD91" d="M6.204,31.697c0.285-0.006,0.57-0.012,0.855-0.013C6.773,31.682,6.489,31.692,6.204,31.697z"/>
	<path fill="#E5CD91" d="M27.687,32.529c-2.142,0.15-4.333,0.371-6.521,0.442c0.388,0.011,0.777,0.012,1.167,0.016
		c-0.968,0.015-1.933,0.02-2.894,0.004c0.575,0.007,1.15-0.001,1.727-0.02c-2.182-0.063-4.344-0.233-6.522-0.482
		c1.514,0.327,3.053,0.475,4.604,0.501c-1.501-0.028-2.999-0.108-4.503-0.255c0.179,0.034,0.357,0.063,0.537,0.103
		c4.123,0.824,8.004,0.412,12.236,0.164c1.211-0.102,2.438-0.248,3.529-0.37c1.3-0.16,2.603-0.333,3.905-0.505v-0.062
		c-1.303,0.145-2.605,0.295-3.905,0.442c1.3-0.16,2.603-0.375,3.905-0.614v-0.229c-1.313,0.154-2.627,0.32-3.941,0.493
		C29.908,32.301,28.81,32.426,27.687,32.529z"/>
	<path fill="#E5CD91" d="M6.204,31.697c-0.126,0.003-0.252,0.005-0.378,0.009C5.952,31.702,6.078,31.699,6.204,31.697z"/>
	<path fill="#E5CD91" d="M0.016,32.229c1.436-0.195,2.871-0.359,4.311-0.456c-1.44,0.083-2.879,0.215-4.311,0.369V32.229z"/>
	<path fill="#E5CD91" d="M5.826,31.706c-0.5,0.014-1,0.034-1.499,0.067C4.827,31.745,5.327,31.721,5.826,31.706z"/>
	<path fill="#E5CD91" d="M27.695,32.301c-5.626,0.311-11.203,0.125-16.776-0.719c-3.683-0.428-7.252-0.26-10.903,0.112v0.257
		c3.635-0.414,7.212-0.734,10.903-0.164c5.573,1.051,11.15,1.257,16.808,0.68c1.239-0.125,2.487-0.268,3.59-0.434
		c1.223-0.182,2.434-0.382,3.635-0.585v-0.024c-1.231,0.193-2.465,0.377-3.703,0.527C30.15,32.076,28.914,32.199,27.695,32.301z"/>
	<path fill="#E5CD91" d="M0.016,31.39c0.688-0.086,1.377-0.162,2.066-0.229c-0.688,0.038-1.377,0.086-2.066,0.144V31.39z"/>
	<path fill="#E5CD91" d="M2.083,31.16c2.948-0.163,5.893-0.138,8.837,0.215C7.971,30.806,5.022,30.874,2.083,31.16z"/>
	<path fill="#E5CD91" d="M0.016,30.928v0.211c3.654-0.337,7.279-0.535,10.903,0.01C7.193,30.46,3.577,30.612,0.016,30.928z"/>
	<path fill="#E5CD91" d="M0.016,30.543v0.17c3.575-0.211,7.185-0.161,10.903,0.25c3.03,0.448,6.061,0.767,9.08,0.886
		c-3.019,0.005-6.049-0.129-9.08-0.7c3.761,0.709,7.523,0.841,11.227,0.747c1.566,0.008,3.127-0.048,4.683-0.175
		c0.244-0.005,0.488-0.012,0.732-0.016c1.228-0.123,2.459-0.269,3.55-0.412c1.107-0.156,2.209-0.323,3.303-0.487
		c-1.795,0.495-3.628,0.848-5.483,1.063c-0.974,0.125-2.063,0.227-3.086,0.269c-4.986,0.062-9.837-0.144-14.925-0.763
		c5.573,1.236,11.15,1.051,16.707,0.721c1.115-0.102,2.197-0.247,3.279-0.391c1.358-0.181,2.706-0.392,4.047-0.602v-0.401
		c-0.092,0.013-0.178,0.014-0.274,0.034c-0.047,0.014-0.095,0.024-0.143,0.037c-1.174,0.168-2.35,0.335-3.524,0.479
		c-0.191,0.025-0.402,0.048-0.601,0.073c0.232-0.032,0.479-0.062,0.701-0.095c1.291-0.194,2.57-0.446,3.841-0.72V30.35
		c-1.271,0.202-2.55,0.394-3.841,0.552c-1.091,0.123-2.318,0.269-3.538,0.37c-5.504,0.104-11.081,0.516-16.654-0.535
		C7.208,30.188,3.605,30.281,0.016,30.543z"/>
	<path fill="#E5CD91" d="M31.111,30.715c1.291-0.169,2.57-0.369,3.841-0.575v-0.021c-1.32,0.202-2.646,0.396-3.979,0.555
		c-1.11,0.145-2.358,0.289-3.594,0.371c-0.44,0.043-0.877,0.072-1.314,0.105c0.505-0.01,1.009-0.021,1.513-0.023
		C28.793,31.003,30.021,30.859,31.111,30.715z"/>
	<path fill="#E5CD91" d="M26.065,31.15c-2.03,0.043-4.068,0.132-6.112,0.169C21.981,31.361,24.013,31.307,26.065,31.15z"/>
	<path fill="#E5CD91" d="M19.953,31.319c-2.99-0.062-5.977-0.325-9.034-0.789c-1.19-0.132-2.369-0.208-3.542-0.257
		c1.172,0.101,2.351,0.243,3.542,0.463C13.934,31.305,16.948,31.375,19.953,31.319z"/>
	<path fill="#E5CD91" d="M7.378,30.273c-2.475-0.211-4.918-0.187-7.362-0.025v0.074C2.467,30.223,4.909,30.172,7.378,30.273z"/>
	<path fill="#E5CD91" d="M6.061,29.778c-1.623-0.088-3.239-0.085-4.859-0.013C2.824,29.724,4.44,29.724,6.061,29.778z"/>
	<path fill="#E5CD91" d="M27.635,30.736c1.228-0.104,2.463-0.228,3.577-0.371c1.251-0.162,2.498-0.355,3.74-0.563V29.79
		c-2.343,0.371-4.712,0.656-7.084,0.802c-1.454,0.123-2.717,0.186-3.908,0.205c-4.313-0.267-8.679-0.061-13.041-0.679
		c-1.636-0.182-3.25-0.285-4.859-0.34c1.607,0.088,3.222,0.259,4.859,0.567C16.492,31.375,22.069,30.963,27.635,30.736z"/>
	<path fill="#E5CD91" d="M0.016,29.829c0.395-0.025,0.791-0.046,1.185-0.063c-0.395,0.011-0.79,0.023-1.185,0.038V29.829z"/>
	<path fill="#E5CD91" d="M24.104,30.489c1.18-0.021,2.411-0.081,3.828-0.228c2.347-0.131,4.69-0.433,7.02-0.835v-0.011
		c-2.343,0.392-4.712,0.673-7.084,0.805c-1.434,0.104-2.681,0.145-3.872,0.166c-0.541,0.008-1.082,0.007-1.623,0.004
		c0.68-0.011,1.359-0.024,2.038-0.066c1.204-0.041,2.439-0.104,3.854-0.268c2.248-0.205,4.482-0.595,6.688-1.117v-0.146
		c-1.844,0.386-3.712,0.725-5.594,0.954c-1.018,0.124-2.031,0.206-3.049,0.268c-4.725,0.331-9.57-0.103-14.179-0.515
		c-4.09-0.416-8.071-0.648-12.115-0.576v0.117c1.354-0.004,2.713,0.025,4.115,0.025c4.066,0.26,8.131,0.803,12.179,1.111
		c-5.433-0.312-10.866-0.845-16.294-0.798v0.082C7.988,29.314,16.015,30.871,24.104,30.489z"/>
	<path fill="#E5CD91" d="M12.131,29.295c4.608,0.617,9.454,0.823,14.086,0.451c1.01-0.061,2.02-0.163,3.033-0.287
		c1.903-0.233,3.807-0.555,5.702-0.874V28.52c-1.896,0.284-3.799,0.575-5.702,0.795c-1.014,0.103-2.023,0.207-3.033,0.248
		c-4.632,0.556-9.478,0.144-14.086-0.496c-4.044-0.411-8.088-0.634-12.115-0.575v0.214C4.033,28.641,8.082,28.867,12.131,29.295z"/>
	<path fill="#E5CD91" d="M11.646,28.883c4.846,0.412,9.696,0.823,14.57,0.37c1.01-0.062,2.02-0.144,3.029-0.248
		c1.906-0.22,3.81-0.529,5.706-0.841v-0.065c-1.896,0.285-3.8,0.584-5.706,0.804c-1.01,0.103-2.02,0.186-3.029,0.27
		c-2.617,0.266-5.197,0.266-7.766,0.143c-6.168-0.295-12.248-1.373-18.435-1.375v0.386C3.903,28.329,7.827,28.599,11.646,28.883z"/>
	<path fill="#E5CD91" d="M8.222,28.218c-2.736-0.192-5.473-0.364-8.206-0.42v0.102C2.758,27.91,5.506,28.044,8.222,28.218z"/>
	<path fill="#E5CD91" d="M11.646,28.45c-1.133-0.08-2.277-0.158-3.425-0.232c1.631,0.115,3.261,0.235,4.889,0.344
		C12.623,28.522,12.135,28.494,11.646,28.45z"/>
	<path fill="#E5CD91" d="M26.205,28.841c1.014-0.042,2.026-0.103,3.037-0.187c1.908-0.181,3.813-0.466,5.71-0.801v-0.016
		c-1.896,0.319-3.802,0.58-5.71,0.734c-1.011,0.104-2.023,0.145-3.037,0.166c-4.335,0.31-8.708,0.114-13.094-0.177
		C17.47,28.903,21.832,29.044,26.205,28.841z"/>
	<path fill="#E5CD91" d="M26.326,28.594c1.025-0.041,2.056-0.144,3.081-0.247c1.857-0.211,3.708-0.518,5.545-0.858v-0.056
		c-1.837,0.319-3.688,0.611-5.545,0.81c-1.025,0.104-2.056,0.208-3.081,0.248c-3.041,0.164-6.195,0.393-9.345-0.04
		c-5.493-0.583-10.983-0.752-16.442-0.86C9.131,27.817,17.764,29.149,26.326,28.594z"/>
	<path fill="#E5CD91" d="M0.016,27.579c0.174,0.003,0.349,0.007,0.523,0.011c-0.174-0.005-0.349-0.013-0.523-0.016V27.579z"/>
	<path fill="#E5CD91" d="M26.237,28.078c1.018-0.02,2.039-0.103,3.065-0.205c1.877-0.189,3.762-0.484,5.649-0.821v-0.078
		c-1.888,0.302-3.772,0.57-5.649,0.735c-1.026,0.102-2.048,0.164-3.065,0.205c-8.843,0.598-17.498-0.775-26.221-0.991v0.219
		C8.733,27.35,17.391,28.728,26.237,28.078z"/>
	<path fill="#E5CD91" d="M26.459,27.811c1.038-0.063,2.08-0.144,3.118-0.308c1.805-0.227,3.6-0.548,5.375-0.91V26.44
		c-1.9,0.313-3.801,0.58-5.702,0.752c-1.063,0.083-2.124,0.165-3.187,0.187c-8.697,0.531-17.318-0.585-26.047-0.82v0.031
		C8.814,26.802,17.63,28.677,26.459,27.811z"/>
	<path fill="#E5CD91" d="M0.735,26.162c8.484,0.618,16.969,1.464,25.454,1.03c1.074-0.04,2.152-0.103,3.227-0.206
		c1.851-0.165,3.697-0.418,5.537-0.719v-0.041c-1.84,0.27-3.687,0.478-5.537,0.596c-1.074,0.063-2.152,0.103-3.227,0.123
		c-8.794,0.549-17.431-0.71-26.172-0.906v0.089C0.256,26.141,0.49,26.142,0.735,26.162z"/>
	<path fill="#E5CD91" d="M25.365,26.637c-8.47,0.115-16.852-0.918-25.349-1.053v0.293c8.496,0.178,16.878,1.081,25.349,0.966
		c0.929-0.021,1.841-0.082,2.758-0.164c2.279-0.194,4.556-0.55,6.829-0.919v-0.1c-2.274,0.329-4.551,0.665-6.833,0.832
		C27.206,26.574,26.29,26.617,25.365,26.637z"/>
	<path fill="#E5CD91" d="M25.236,26.225c0.932-0.02,1.853-0.063,2.781-0.125c2.315-0.153,4.632-0.458,6.935-0.793v-0.105
		c-2.304,0.291-4.621,0.572-6.938,0.715c-0.925,0.061-1.846,0.082-2.777,0.102c-5.896-0.035-11.863-0.25-17.825-0.456
		C13.373,25.91,19.341,26.422,25.236,26.225z"/>
	<path fill="#E5CD91" d="M0.016,25.276v0.057c2.461,0.067,4.926,0.143,7.395,0.229C4.943,25.417,2.477,25.303,0.016,25.276z"/>
	<path fill="#E5CD91" d="M34.952,24.754c-0.446,0.06-0.893,0.115-1.341,0.176c0.447-0.051,0.895-0.104,1.341-0.156V24.754z"/>
	<path fill="#E5CD91" d="M28.014,25.586c1.868-0.156,3.737-0.406,5.598-0.656c-2.781,0.314-5.58,0.566-8.368,0.554
		c-1.041,0.061-2.011,0.061-2.96,0.021C14.949,25.199,7.45,25.009,0.016,24.87v0.174c8.4,0.177,16.865,0.715,25.13,0.748
		C26.116,25.75,27.089,25.668,28.014,25.586z"/>
	<path fill="#E5CD91" d="M34.952,24.251c-3.173,0.336-6.345,0.736-9.511,0.82c3.166-0.014,6.338-0.375,9.511-0.735V24.251z"/>
	<path fill="#E5CD91" d="M22.47,25.152c0.961,0.021,1.934,0,2.972-0.081c-1.034,0.081-2.003,0.061-2.96,0.021
		c-7.439-0.528-14.935-0.431-22.465-0.742v0.188C7.538,24.688,14.957,25.282,22.47,25.152z"/>
	<path fill="#E5CD91" d="M22.688,24.844c0.937,0.063,1.95,0.021,2.964-0.039c3.109-0.082,6.207-0.503,9.301-0.934v-0.213
		c-3.094,0.328-6.191,0.707-9.301,0.773c-0.997,0.063-1.986,0.082-2.924,0.021c-7.443-0.328-15.123-0.38-22.711-0.654v0.138
		c5.593,0.1,11.156,0.558,16.723,0.558C18.678,24.494,20.858,24.494,22.688,24.844z"/>
	<path fill="#E5CD91" d="M22.51,23.32c-7.409-0.079-15.081,0.1-22.494-0.415v0.288c0.398,0.016,0.795,0.033,1.194,0.048
		c-0.397-0.013-0.796-0.014-1.194-0.019v0.171c5.534,0.114,10.928,0.984,16.476,0.462c1.938-0.186,3.881,0.227,5.925,0.309
		c0.957,0.063,1.954,0.042,2.964,0.021c3.192-0.027,6.37-0.357,9.571-0.691v-0.188c-3.201,0.25-6.379,0.577-9.571,0.632
		c-0.998,0.021-1.982,0.043-2.939,0c-1.825-0.082-4.011-0.494-5.949-0.268c-4.922,0.448-9.722-0.192-14.569-0.4
		c6.85,0.245,13.733,0.357,20.586,0.194c0.957,0.062,1.918,0.062,2.875,0.062c3.189-0.041,6.367-0.318,9.567-0.574v-0.025
		c-3.2,0.227-6.378,0.456-9.567,0.456C24.428,23.382,23.471,23.361,22.51,23.32z"/>
	<path fill="#E5CD91" d="M6.972,22.682c-1.653-0.087-3.302-0.154-4.944-0.152C3.678,22.604,5.327,22.655,6.972,22.682z"/>
	<path fill="#E5CD91" d="M22.667,22.701c-0.949-0.041-1.886-0.144-2.814-0.268c-4.345,0.244-8.611,0.316-12.881,0.248
		c3.162,0.166,6.34,0.37,9.521,0.145c2.186-0.207,4.608-0.412,6.854,0.144c1.106,0.042,2.217,0.062,3.323,0.062
		c2.78-0.017,5.552-0.173,8.283-0.485v-0.12C30.878,22.678,26.78,23.011,22.667,22.701z"/>
	<path fill="#E5CD91" d="M0.016,22.582c0.669-0.032,1.34-0.052,2.012-0.053c-0.67-0.03-1.339-0.056-2.012-0.095V22.582z"/>
	<path fill="#E5CD91" d="M24.286,22.352c-1.005-0.02-2.007-0.082-3.008-0.164c-0.905-0.412-2.116-0.412-3.086-0.186
		c-6.126,0.578-12.044-0.114-18.176-0.089v0.261c6.13-0.063,12.049,0.613,18.176,0.033c0.97-0.205,2.181-0.205,3.082,0.166
		c1.005,0.082,2.007,0.123,3.008,0.123c3.543,0.036,7.104-0.29,10.67-0.51v-0.152C31.373,22.13,27.815,22.424,24.286,22.352z"/>
	<path fill="#E5CD91" d="M21.298,21.609c-1.025-0.04-2.031-0.102-3.021-0.227c-6.222,0.773-12.158,0.264-18.261,0.079v0.205
		c6.109,0.187,12.042,0.697,18.253-0.058c0.985,0.166,1.991,0.289,3.013,0.33c4.497,0.314,9.05-0.25,13.67-0.412v-0.151
		C30.451,21.592,25.815,21.831,21.298,21.609z"/>
	<path fill="#E5CD91" d="M21.569,21.383c1.417,0.096,2.825,0.115,4.229,0.095C24.395,21.479,22.986,21.456,21.569,21.383z"/>
	<path fill="#E5CD91" d="M34.952,21.012c-3.068,0.174-6.103,0.422-9.153,0.466c3.054-0.003,6.092-0.144,9.153-0.287V21.012z"/>
	<path fill="#E5CD91" d="M0.016,21.001v0.246c6.249,0.16,12.224,0.495,18.415-0.09c1.03,0.123,2.088,0.206,3.139,0.226
		c-1.047-0.062-2.101-0.163-3.139-0.33C12.22,21.738,6.229,21.04,0.016,21.001z"/>
	<path fill="#E5CD91" d="M21.452,20.662c-0.941,0.021-1.979-0.021-3.021-0.021c-0.746,0.069-1.497,0.119-2.251,0.158
		c0.75-0.019,1.495-0.03,2.251-0.054c1.042,0,2.084,0.063,3.009,0.041c4.528,0.321,8.956,0.206,13.513,0.023v-0.249
		C30.368,20.64,25.96,20.911,21.452,20.662z"/>
	<path fill="#E5CD91" d="M0.016,20.559v0.246c3.814,0.087,7.559,0.112,11.315,0.077c-3.308-0.034-6.629-0.215-9.869-0.323H0.016z"/>
	<path fill="#E5CD91" d="M16.18,20.799c-1.623,0.04-3.241,0.067-4.849,0.083C12.955,20.898,14.575,20.882,16.18,20.799z"/>
	<path fill="#E5CD91" d="M22.772,20.168c-1.099-0.021-2.282-0.041-3.449-0.041c-0.893,0-1.781,0-2.673,0.02
		c-4.766-0.02-9.369,0.393-14.28,0c-0.783-0.018-1.567-0.018-2.354-0.018v0.217c0.481-0.005,0.962-0.013,1.446-0.013
		c5.577,0.412,11.396-0.02,16.969-0.02c1.042,0,2.063,0.02,3.082,0.02c4.426,0.177,8.972,0.043,13.439-0.001V20.14
		C30.848,20.129,26.9,20.133,22.772,20.168z"/>
	<path fill="#E5CD91" d="M3.34,19.941c4.184,0.186,8.064,0.186,12.103,0c0.731-0.02,1.458-0.02,2.197-0.02h2.181h2.847
		c3.768-0.021,7.645-0.021,11.538-0.042c0.252,0.011,0.498,0.009,0.747,0.013v-0.54c-4.382-0.323-8.696,0.175-13.036,0.157
		c-0.937-0.021-1.894,0-2.835,0c-1.417,0-2.851-0.021-4.265,0c-3.776,0.02-7.899,0.02-11.707,0
		c-1.028,0.014-2.061,0.022-3.093,0.029v0.387c0.355-0.001,0.711-0.004,1.066-0.004C1.841,19.922,2.592,19.922,3.34,19.941z
		 M3.816,19.734h8.767c-2.92,0.052-5.827,0.123-8.767,0.021c-0.318,0-0.657-0.007-0.989-0.013
		C3.156,19.742,3.485,19.734,3.816,19.734z"/>
	<path fill="#E5CD91" d="M34.952,18.386c-5.031-0.483-10.113,0.299-15.229,0.299c-0.97-0.02-1.971-0.02-2.944-0.02
		c-5.012-0.187-10.347-0.392-15.451,0.02c-0.435,0.025-0.874,0.041-1.312,0.062v0.206c0.359-0.013,0.718-0.021,1.079-0.042
		c4.607-0.226,9.219-0.432,13.714-0.062c1.434,0.042,2.855,0.062,4.272,0.062h2.98c2.827-0.135,5.778-0.181,8.721-0.168
		c-2.944,0.065-5.905,0.354-8.753,0.354h-2.948c-1.417,0-2.835,0-4.265-0.042c-3.776,0.042-7.899-0.576-11.667-0.061
		c-1.042,0.03-2.089,0.097-3.134,0.15v0.216c1.039-0.044,2.079-0.091,3.114-0.12c3.788-0.35,7.911,0.289,11.69,0.063
		c1.426,0.02,2.844,0.02,4.261,0.02c0.953,0,1.927-0.02,2.907,0c4.274-0.2,8.584-0.212,12.964-0.057v-0.408
		c-0.473-0.044-0.949-0.067-1.426-0.088c0.479,0.009,0.95,0.023,1.426,0.035V18.386z"/>
	<path fill="#E5CD91" d="M22.36,17.429c-1.002,0.041-2.016,0.041-2.973,0.062c-6.441-0.8-12.992-0.87-19.372-0.197v0.386
		c0.275-0.021,0.551-0.042,0.824-0.065c6.078-1.009,12.382-0.391,18.516,0.083c0.974,0,1.983,0,2.984-0.042
		c2.595-0.108,5.172-0.397,7.773-0.532c-2.783,0.374-5.482,0.645-8.145,0.738c-0.728,0.042-1.45,0.062-2.177,0.042
		c-6.57-0.248-12.875-1.092-19.521,0.02c-0.084,0.006-0.17,0.013-0.254,0.019V18.1c0.075-0.004,0.151-0.01,0.226-0.014
		c5.706-0.637,11.525-0.637,17.369-0.039c0.933,0.02,1.866,0.039,2.811,0.039c2.056-0.032,4.101-0.136,6.145-0.235
		c-1.796,0.167-3.598,0.353-5.405,0.422c-1.248,0-2.439-0.043-3.542-0.021c-5.852-0.392-11.671-0.598-17.43,0.082
		c-0.058,0.003-0.115,0.005-0.173,0.008v0.202c0.053-0.002,0.104-0.003,0.157-0.004c5.775-0.268,11.594-0.268,17.45-0.063
		c1.11-0.021,2.266,0.02,3.489,0.02c4.68-0.017,9.278-0.622,13.84-0.31v-0.43c-0.263-0.035-0.525-0.069-0.788-0.094
		c0.263,0.004,0.525,0,0.788,0.008v-0.375c-0.587-0.097-1.178-0.182-1.777-0.237c0.59,0.01,1.183,0.038,1.777,0.082v-0.285
		C30.671,16.474,26.529,17.202,22.36,17.429z"/>
	<path fill="#E5CD91" d="M23.16,16.749c-1.139,0.144-2.282,0.288-3.396,0.474c-6.566-0.931-13.136-1.343-19.748-0.384v0.15
		c6.542-0.906,12.917-0.508,19.401,0.274c1.102-0.061,2.285-0.061,3.444-0.123c4.052-0.219,8.075-0.685,12.091-0.511v-0.234
		C31.067,16.024,27.122,16.258,23.16,16.749z"/>
	<path fill="#E5CD91" d="M0.016,16.437v0.077c5.464-1.024,11.065-0.531,16.671-0.189C11.138,15.57,5.667,15.426,0.016,16.437z"/>
	<path fill="#E5CD91" d="M34.952,16.091v-0.162c-3.885-0.356-7.83-0.007-11.792,0.469c-0.345,0.031-0.684,0.07-1.024,0.107
		c0.853-0.057,1.707-0.121,2.559-0.189C28.125,16.053,31.554,15.848,34.952,16.091z"/>
	<path fill="#E5CD91" d="M0.016,15.766c0.622-0.117,1.244-0.249,1.867-0.382c-0.62,0.067-1.244,0.153-1.867,0.237V15.766z"/>
	<path fill="#E5CD91" d="M28.737,14.73c-0.727,0.077-1.442,0.182-2.156,0.297c2.146-0.207,4.285-0.359,6.419-0.315
		C31.596,14.595,30.184,14.577,28.737,14.73z"/>
	<path fill="#E5CD91" d="M25.865,15.142c0.238-0.042,0.478-0.077,0.716-0.115c-0.192,0.019-0.385,0.034-0.578,0.054
		c-0.949,0.082-1.895,0.206-2.848,0.288c-4.356,0.618-8.48-0.432-12.841-0.844c-2.973-0.344-5.719,0.277-8.431,0.859
		c6.031-0.654,11.938-0.529,18.369,0.397c0.175,0.037,0.349,0.059,0.522,0.082c-7.061-0.04-13.905-1.556-20.758,0.017v0.362
		c6.182-1.111,12.163-1.168,18.54,0.158c0.1,0.021,0.21,0.03,0.314,0.047c-0.728-0.036-1.455-0.077-2.183-0.121
		c1.017,0.138,2.036,0.291,3.06,0.465c0.786-0.101,1.584-0.197,2.389-0.284c-0.166,0.011-0.332,0.026-0.498,0.037
		c-0.396-0.007-0.792-0.02-1.188-0.033c0.453-0.034,0.907-0.101,1.334-0.235c1.021-0.062,2.039-0.164,3.057-0.247
		c3.37-0.314,6.73-0.644,10.112-0.496v-0.158c-3.322-0.243-6.677-0.022-10.048,0.263c-0.854,0.05-1.688,0.116-2.518,0.181
		c0.226-0.052,0.446-0.125,0.66-0.223C23.983,15.45,24.921,15.286,25.865,15.142z"/>
	<path fill="#E5CD91" d="M34.952,14.812c-0.65-0.054-1.302-0.086-1.952-0.1c0.651,0.054,1.302,0.133,1.952,0.222V14.812z"/>
	<path fill="#E5CD91" d="M28.737,14.318c-1.454,0.123-2.907,0.35-4.362,0.535c-0.727,0.103-1.478,0.185-2.217,0.267
		c-0.439-0.04-0.878-0.079-1.316-0.118c0.715-0.074,1.438-0.199,2.181-0.292c0.815-0.103,1.632-0.247,2.447-0.371
		c0.322-0.053,0.648-0.097,0.972-0.147c-1.016,0.133-2.032,0.265-3.067,0.416c-0.837,0.145-1.726,0.304-2.604,0.389
		c-0.966-0.086-1.931-0.17-2.893-0.25c-0.018-0.006-0.035-0.009-0.052-0.016c-0.488-0.149-0.976-0.277-1.462-0.391
		c0.395,0.114,0.791,0.236,1.189,0.379c-5.85-0.475-11.648-0.723-17.536,0.165v0.32c6.23-0.978,12.349-1.359,18.783,0.165
		c1.453,0.412,2.907,0,4.356-0.124c0.837-0.102,1.664-0.246,2.492-0.391c1.664-0.247,3.336-0.474,5.032-0.535
		c1.424,0,2.848,0.094,4.272,0.245v-0.229C32.905,14.164,30.822,14.208,28.737,14.318z"/>
	<path fill="#E5CD91" d="M34.613,13.835c-1.393-0.161-2.786-0.235-4.18-0.135c-1.36,0.1-2.681,0.286-3.992,0.491
		c0.095-0.012,0.19-0.026,0.284-0.039C29.377,13.833,32,13.661,34.613,13.835z"/>
	<path fill="#E5CD91" d="M34.952,13.853c-0.113-0.009-0.226-0.01-0.339-0.018c0.113,0.013,0.226,0.024,0.339,0.039V13.853z"/>
	<path fill="#E5CD91" d="M0.016,14.813v0.069c5.467-0.935,10.853-1.821,16.347-0.542C10.803,12.739,5.483,13.92,0.016,14.813z"/>
	<path fill="#E5CD91" d="M11.283,13.267c3.877,0.64,7.272,1.463,11.13,1.236c0.965-0.206,1.938-0.391,2.932-0.536
		c3.204-0.517,6.405-0.737,9.607-0.53v-0.221c-0.874-0.09-1.741-0.155-2.577-0.155c-2.1,0-4.204,0.247-6.304,0.515
		c-1.05,0.125-2.164,0.248-3.23,0.37c-4.285,0.578-8.408-0.473-12.527-1.091c-3.592-0.571-6.771,0.991-10.298,1.717v0.048
		C3.679,13.803,7.293,12.531,11.283,13.267z"/>
	<path fill="#E5CD91" d="M14.662,11.241c0.416,0.076,0.831,0.142,1.245,0.208C15.492,11.379,15.077,11.31,14.662,11.241z"/>
	<path fill="#E5CD91" d="M34.952,11.065v-0.164c-1.35-0.071-2.688-0.03-4.024,0.083C32.27,10.887,33.61,10.94,34.952,11.065z"/>
	<path fill="#E5CD91" d="M30.133,11.06c0.265-0.027,0.529-0.054,0.795-0.077C30.662,11.002,30.397,11.028,30.133,11.06z"/>
	<path fill="#E5CD91" d="M30.133,11.06c-0.587,0.061-1.174,0.128-1.76,0.208c-0.908,0.125-1.816,0.269-2.742,0.391
		c-3.318,0.531-6.506,0.307-9.725-0.209c2.635,0.447,5.264,0.874,7.944,0.54c0.76-0.088,1.538-0.19,2.357-0.285
		c-0.675,0.121-1.366,0.236-2.039,0.347c-4.401,0.597-8.524-0.247-12.886-1.072c-0.833-0.157-1.647-0.227-2.45-0.242
		c1.966-0.075,3.901,0.186,5.829,0.503c-1.118-0.202-2.241-0.432-3.378-0.673C7.37,9.797,3.718,10.933,0.016,11.983v0.309
		c0.653-0.165,1.304-0.329,1.952-0.487c-0.654,0.181-1.304,0.369-1.952,0.557v0.349c2.652-0.683,5.279-1.423,8.062-1.486
		c-2.728,0.127-5.407,0.945-8.062,1.664v0.17c3.687-0.93,7.414-1.85,11.267-1.254c1.093,0.169,2.169,0.351,3.236,0.522
		c-4.938-0.62-9.734-0.3-14.503,0.763v0.473c5.173-1.118,10.514-2.23,15.721-0.617c-5.268-0.968-10.526-0.367-15.721,0.712v0.408
		c2.783-0.691,5.465-1.555,8.355-1.418c5.819,0.206,11.396,2.082,17.333,0.803c1.175-0.144,2.347-0.288,3.518-0.391
		c1.904-0.167,3.809-0.237,5.73-0.122V12.75c-0.935-0.125-1.875-0.234-2.819-0.307c-0.361-0.016-0.724-0.008-1.085-0.001
		c1.299-0.09,2.6-0.105,3.904-0.02v-0.071c-2.744-0.223-5.542,0.015-8.344,0.38c-1.102,0.164-2.306,0.269-3.433,0.412
		c-1.228,0.329-2.682,0.329-3.65,0.123c-0.993-0.251-1.979-0.46-2.96-0.634c2.253,0.312,4.487,0.508,6.78,0.346
		c0.917-0.103,1.846-0.227,2.831-0.309c2.924-0.445,5.838-0.86,8.775-0.741v-0.176c-1.833-0.159-3.671-0.125-5.517,0.03
		c-1.143,0.103-2.286,0.228-3.437,0.393c-4.777,0.885-9.139,0.473-13.989-0.577c-0.177-0.046-0.353-0.075-0.529-0.112
		c4.6,0.623,9.004,1.532,13.683,0.689c0.953-0.165,1.905-0.311,2.863-0.455c0.961-0.144,1.922-0.247,2.896-0.329
		c1.343-0.095,2.687-0.054,4.03,0.076V11.27c-2.162-0.242-4.364-0.214-6.573,0.077c0.28-0.052,0.56-0.102,0.843-0.16
		C29.525,11.131,29.829,11.097,30.133,11.06z M23.35,13.308c0.767-0.087,1.59-0.176,2.421-0.264
		c-0.812,0.13-1.644,0.253-2.457,0.388c-1.583,0.041-3.485,0.655-5.163,0.063C19.849,13.746,21.673,13.731,23.35,13.308z"/>
	<path fill="#E5CD91" d="M29.706,10.341c1.749-0.171,3.497-0.24,5.246-0.147V9.955c-0.93-0.087-1.874-0.106-2.819-0.026
		c-1.014,0.083-2.019,0.187-3.032,0.311c-1.01,0.144-2.023,0.288-3.033,0.432c-3.523,0.5-7.049,0.251-10.575-0.225
		c1.017,0.192,2.038,0.435,3.063,0.74c0.039,0.009,0.078,0.012,0.118,0.021c-2.234-0.097-4.473-0.4-6.664-1.052
		c-0.327-0.089-0.653-0.161-0.98-0.218c0.656,0.027,1.313,0.074,1.973,0.144c-0.736-0.117-1.473-0.237-2.208-0.359
		c-3.585-0.568-6.844,0.383-10.051,1.306c1.658-0.399,3.329-0.709,5.014-0.9c-1.914,0.381-3.828,1-5.742,1.548v0.149
		c3.207-0.927,6.389-1.976,9.813-1.67c5.815,0.825,11.15,2.082,17.022,0.969c1.077-0.185,2.156-0.329,3.238-0.453
		c1.078-0.104,2.164-0.144,3.255-0.104c0.536,0.057,1.072,0.098,1.607,0.137v-0.141c-0.535-0.083-1.071-0.161-1.607-0.223
		c-1.131-0.062-2.25-0.02-3.356,0.063c-1.11,0.082-2.204,0.248-3.299,0.412c-0.475,0.058-0.955,0.108-1.437,0.158
		c0.435-0.074,0.869-0.149,1.304-0.22C27.605,10.589,28.656,10.445,29.706,10.341z"/>
	<path fill="#E5CD91" d="M13.003,10.082c0.83,0.131,1.659,0.252,2.489,0.365C14.659,10.289,13.83,10.169,13.003,10.082z"/>
	<path fill="#E5CD91" d="M0.016,11.236c0.242-0.069,0.485-0.138,0.728-0.208c-0.243,0.058-0.485,0.115-0.728,0.177V11.236z"/>
	<path fill="#E5CD91" d="M25.103,10.259c0.944-0.144,1.934-0.247,2.847-0.35c2.334-0.292,4.658-0.434,7.003-0.405V9.375
		c-1.796-0.038-3.582,0.067-5.367,0.246c-1.03,0.102-2.06,0.226-3.09,0.37c-5.273,0.783-10.366-0.062-15.455-1.112
		c-3.762-0.761-7.392,0.4-11.024,1.475v0.225c3.552-1.011,7.033-2.094,10.778-1.473c1.331,0.226,2.643,0.5,3.947,0.755
		c-1.64-0.284-3.276-0.574-4.912-0.755C6.388,8.812,3.19,9.878,0.016,10.803v0.117c3.18-0.948,6.375-1.915,9.813-1.609
		c5.573,0.845,11.15,2.288,16.666,1.154c1.03-0.145,2.06-0.288,3.09-0.393c1.785-0.202,3.571-0.316,5.367-0.278v-0.19
		c-1.763-0.093-3.505,0-5.246,0.202c-1.01,0.123-2.02,0.247-3.032,0.412c-1.979,0.48-3.944,0.561-5.9,0.444
		C22.203,10.703,23.642,10.601,25.103,10.259z"/>
	<path fill="#E5CD91" d="M28.754,9.396c0.354-0.052,0.707-0.1,1.063-0.148c-0.198,0.021-0.395,0.037-0.595,0.063
		C29.066,9.337,28.909,9.368,28.754,9.396z"/>
	<path fill="#E5CD91" d="M24.084,9.888c-1.629,0.154-3.234,0.078-4.826-0.094c2.016,0.141,4.047,0.117,6.079-0.194
		c0.973-0.165,1.986-0.33,2.915-0.495c2.311-0.405,4.523-0.461,6.7-0.401v-0.13c-0.505-0.055-1.011-0.104-1.522-0.129
		c0.505-0.023,1.015-0.029,1.522-0.038V8.252c-1.244-0.022-2.482,0.006-3.716,0.07c-0.764,0.04-1.58,0.091-2.407,0.147
		c2.043-0.338,4.077-0.602,6.123-0.56V7.738c-0.374,0.019-0.748,0.058-1.123,0.11c-1.817,0.041-3.65,0.248-5.492,0.474
		c-0.921,0.124-1.942,0.226-2.903,0.309c-0.631,0.083-1.261,0.138-1.89,0.173c-0.246,0.004-0.492,0.018-0.737,0.018
		c-0.071,0.002-0.142,0.003-0.213,0.004c-1.246-0.001-2.49-0.055-3.735-0.127c-2.941-0.252-5.866-0.79-8.791-1.263
		C6.562,6.975,3.307,7.839,0.016,8.758v0.194C3.632,7.924,7.27,6.88,11.041,7.643c1.057,0.254,2.129,0.495,3.207,0.708
		c-2.024-0.18-4.059-0.372-6.118-0.501c-2.642-0.14-5.393,0.588-8.113,1.334v0.17C2.11,8.781,4.225,8.252,6.408,8.12
		C4.256,8.369,2.133,8.975,0.016,9.57v0.206c3.62-1.017,7.255-2.071,11.024-1.309c0.409,0.093,0.822,0.182,1.235,0.271
		c-0.736-0.107-1.472-0.205-2.208-0.271C6.564,8.184,3.312,9.075,0.016,9.979V10.2c3.299-0.986,6.55-2.117,10.052-1.507
		c5.577,1.03,10.668,2.082,16.206,1.155c0.842-0.138,1.664-0.302,2.48-0.451c-0.362,0.054-0.726,0.107-1.087,0.163
		C26.362,9.661,25.203,9.785,24.084,9.888z M24.738,9.311c-4.501,0.805-8.889,0.074-13.063-0.903
		c4.632,0.625,9.248,1.821,13.795,0.719c0.716-0.085,1.501-0.157,2.303-0.223C26.708,9.02,25.706,9.156,24.738,9.311z"/>
	<path fill="#E5CD91" d="M30.922,9.105c-0.37,0.042-0.737,0.093-1.105,0.143c1.763-0.187,3.464-0.208,5.136-0.153V8.978
		C33.608,8.899,32.265,8.897,30.922,9.105z"/>
	<path fill="#E5CD91" d="M34.952,7.602c-0.751,0.024-1.502,0.069-2.255,0.132c0.747-0.046,1.499-0.078,2.255-0.097V7.602z"/>
	<path fill="#E5CD91" d="M0.016,8.407v0.237c2.506-0.682,4.99-1.399,7.579-1.508C5.037,7.182,2.524,7.768,0.016,8.407z"/>
	<path fill="#E5CD91" d="M24.339,8.611c1.168-0.123,2.362-0.247,3.731-0.35c1.542-0.202,3.086-0.397,4.627-0.527
		c-0.959,0.059-1.916,0.129-2.87,0.218c-0.885,0.083-1.776,0.185-2.669,0.289c-3.488,0.408-6.929,0.383-10.352,0.044
		C19.304,8.591,21.793,8.752,24.339,8.611z"/>
	<path fill="#E5CD91" d="M8.324,7.135c0.271,0.007,0.542,0.017,0.814,0.037c0.001,0,0.002,0,0.003,0
		c0.629,0.047,1.262,0.133,1.898,0.264c1.919,0.371,3.84,0.658,5.766,0.849c-2.224-0.272-4.455-0.656-6.739-1.055
		C9.979,7.219,9.893,7.215,9.804,7.206c1.01,0.058,2.021,0.134,3.032,0.221c-0.602-0.125-1.201-0.259-1.795-0.402
		C8.881,6.667,6.766,6.804,4.669,7.161C5.746,7.104,6.823,7.1,7.901,7.127C7.799,7.13,7.697,7.132,7.595,7.136
		C7.757,7.133,7.92,7.129,8.083,7.131C8.164,7.133,8.244,7.133,8.324,7.135z"/>
	<path fill="#E5CD91" d="M11.041,6.798c2.409,0.353,4.819,0.816,7.256,1.082c-1.82-0.125-3.642-0.298-5.461-0.454
		c3.816,0.796,7.761,1.208,11.479,0.834c1.167-0.082,2.374-0.226,3.755-0.331c2.295-0.3,4.593-0.588,6.882-0.688V7.161
		c-1.061-0.028-2.12-0.029-3.18,0.05c1.061-0.117,2.121-0.219,3.18-0.292V6.726c-0.697-0.011-1.395-0.003-2.093,0.073
		c-1.175,0.144-2.35,0.309-3.532,0.494c-1.386,0.144-2.759,0.288-3.914,0.454C20.252,8.467,15.16,7.23,10.068,6.612
		C6.613,6.304,3.281,6.961,0.016,7.706v0.506c1.547-0.4,3.095-0.786,4.653-1.052C3.592,7.217,2.516,7.319,1.44,7.492
		C4.605,6.769,7.773,6.27,11.041,6.798z M26.434,7.771c-0.73,0.073-1.425,0.15-2.103,0.222c-0.31,0.016-0.62,0.017-0.93,0.025
		c0.298-0.021,0.595-0.032,0.894-0.066C24.982,7.891,25.688,7.831,26.434,7.771z"/>
	<path fill="#E5CD91" d="M10.068,6.386c4.849,0.638,9.458,1.462,14.203,1.154c1.171-0.084,2.395-0.206,3.804-0.289
		c2.292-0.271,4.589-0.542,6.878-0.634V6.312c-0.455-0.004-0.91,0.01-1.365,0.075c-0.909,0.144-1.821,0.268-2.738,0.412
		c-0.913,0.125-1.829,0.269-2.75,0.37c-5.661,0.68-11.485,0.268-17.058-0.782c-0.301-0.046-0.599-0.083-0.897-0.114
		c0.812,0.055,1.619,0.125,2.425,0.206c-0.588-0.095-1.179-0.195-1.774-0.298C10.089,6.063,9.39,5.999,8.694,5.963
		c0.528,0.001,1.055,0.012,1.581,0.035c-0.069-0.008-0.138-0.017-0.207-0.024C6.68,5.528,3.293,5.913,0.016,6.533v0.181
		C1.709,6.407,3.389,6.186,5.065,6.07C3.371,6.245,1.692,6.568,0.016,6.927v0.19c1.853-0.365,3.705-0.656,5.556-0.811
		c-1.89,0.2-3.734,0.588-5.556,1.004V7.46C3.289,6.667,6.617,5.946,10.068,6.386z"/>
	<path fill="#E5CD91" d="M12.568,6.479c2.819,0.455,5.579,0.783,8.387,0.81C18.168,7.145,15.383,6.76,12.568,6.479z"/>
	<path fill="#E5CD91" d="M27.675,6.983c1.199-0.123,2.402-0.247,3.493-0.371c1.26-0.131,2.521-0.25,3.784-0.331v-0.18
		c-0.778-0.02-1.557-0.016-2.335,0.079c-1.171,0.144-2.35,0.309-3.533,0.474c-1.43,0.123-2.689,0.288-3.925,0.432
		c-1.423,0.161-2.818,0.215-4.204,0.202C23.188,7.403,25.422,7.365,27.675,6.983z"/>
	<path fill="#E5CD91" d="M34.952,5.91V5.793c-1.99,0.104-3.979,0.373-5.969,0.655c-0.255,0.036-0.509,0.074-0.764,0.112
		c1.014-0.091,2.022-0.193,2.948-0.298C32.428,6.131,33.689,6.005,34.952,5.91z"/>
	<path fill="#E5CD91" d="M22.824,7.004c1.282,0.008,2.566-0.06,3.854-0.238C25.395,6.918,24.11,6.99,22.824,7.004z"/>
	<path fill="#E5CD91" d="M22.824,7.004c-4.17-0.026-8.322-0.822-12.549-1.005C14.46,6.48,18.646,7.05,22.824,7.004z"/>
	<path fill="#E5CD91" d="M28.22,6.561c-0.185,0.017-0.367,0.036-0.553,0.052c-0.33,0.061-0.659,0.108-0.988,0.153
		c0.034-0.004,0.069-0.005,0.104-0.009C27.267,6.703,27.744,6.632,28.22,6.561z"/>
	<path fill="#E5CD91" d="M10.068,5.768c0.767,0.082,1.539,0.163,2.312,0.242c-0.527-0.075-1.054-0.148-1.585-0.242
		c-0.195-0.04-0.39-0.07-0.585-0.103c1.676,0.083,3.358,0.205,5.052,0.331c-1.49-0.163-2.979-0.38-4.467-0.66
		C7.035,4.769,3.516,5.32,0.016,5.925v0.036c1.242-0.17,2.48-0.283,3.717-0.342c-1.247,0.15-2.486,0.362-3.717,0.595v0.114
		C3.306,5.714,6.687,5.337,10.068,5.768z"/>
	<path fill="#E5CD91" d="M18.057,6.497c-1.896-0.122-3.794-0.294-5.677-0.487C14.295,6.281,16.186,6.432,18.057,6.497z"/>
	<path fill="#E5CD91" d="M22.9,6.51c-1.604,0.042-3.217,0.044-4.844-0.013c3.241,0.208,6.476,0.258,9.605-0.069
		c1.2-0.104,2.411-0.248,3.502-0.372c1.263-0.155,2.525-0.309,3.788-0.45V5.509c-1.23,0.108-2.472,0.25-3.72,0.403
		c-1.094,0.124-2.318,0.268-3.533,0.393c-0.48,0.027-0.963,0.051-1.445,0.075c0.473-0.062,0.941-0.136,1.404-0.242
		c1.204-0.122,2.415-0.246,3.506-0.39c1.263-0.144,2.525-0.29,3.788-0.407V5.247c-1.272,0.08-2.547,0.202-3.821,0.358
		c-1.098,0.144-2.33,0.267-3.55,0.39c-2.658,0.292-5.305,0.389-7.944,0.307c0.526,0.031,1.055,0.061,1.585,0.085
		C21.782,6.444,22.342,6.486,22.9,6.51z"/>
	<path fill="#E5CD91" d="M15.261,5.996c1.457,0.159,2.916,0.259,4.375,0.305C18.167,6.212,16.71,6.104,15.261,5.996z"/>
	<path fill="#E5CD91" d="M10.794,5.15c-3.743-0.593-7.25-0.256-10.778,0.3v0.174C3.53,5.006,7.043,4.556,10.794,5.15z"/>
	<path fill="#E5CD91" d="M27.433,5.955C28.66,5.83,29.9,5.686,30.99,5.542c1.332-0.189,2.651-0.368,3.962-0.533V5.001
		c-1.353,0.165-2.707,0.341-4.063,0.52c-1.099,0.123-2.197,0.267-3.324,0.372C21.948,6.18,16.371,5.974,10.794,5.15
		C16.371,6.18,21.948,6.386,27.433,5.955z"/>
	<path fill="#E5CD91" d="M10.794,4.924c5.577,0.844,11.154,1.462,16.646,0.72c1.228-0.123,2.464-0.288,3.554-0.432
		c1.33-0.188,2.647-0.379,3.958-0.564V4.637c-1.352,0.183-2.706,0.369-4.059,0.533c-1.099,0.167-2.197,0.289-3.32,0.392
		c-5.625,0.412-11.202,0.206-16.779-0.844c-0.843-0.13-1.679-0.201-2.51-0.246c0.911,0,1.826,0.029,2.744,0.097
		c-0.078-0.014-0.155-0.022-0.233-0.037C7.122,3.95,3.563,4.263,0.016,4.74v0.596C3.562,4.783,7.061,4.347,10.794,4.924z"/>
	<path fill="#E5CD91" d="M27.392,5.315c1.216-0.104,2.443-0.228,3.534-0.372c1.34-0.165,2.684-0.343,4.026-0.52v-0.06
		c-1.343,0.148-2.687,0.303-4.026,0.455c1.34-0.165,2.684-0.389,4.026-0.637V3.97c-1.353,0.162-2.707,0.334-4.063,0.5
		c-1.099,0.124-2.197,0.268-3.323,0.373c-2.169,0.151-4.388,0.377-6.603,0.443c0.314,0.009,0.631,0.012,0.945,0.017
		c-2.411,0.028-4.795-0.015-7.195-0.237c0.148,0.029,0.297,0.053,0.446,0.085C19.283,5.974,23.164,5.562,27.392,5.315z"/>
	<path fill="#E5CD91" d="M11.028,4.569c1.238,0.221,2.464,0.382,3.686,0.496C13.478,4.819,12.25,4.659,11.028,4.569z"/>
	<path fill="#E5CD91" d="M20.964,5.285c-2.067-0.064-4.118-0.221-6.182-0.452C16.811,5.251,18.885,5.347,20.964,5.285z"/>
	<path fill="#E5CD91" d="M12.891,4.454c4.879,0.73,9.766,0.812,14.714,0.325c1.236-0.123,2.484-0.267,3.591-0.433
		c1.264-0.188,2.515-0.397,3.756-0.61V3.702c-1.272,0.199-2.548,0.386-3.825,0.542c-1.102,0.144-2.33,0.269-3.554,0.37
		c-5.625,0.311-11.202,0.104-16.779-0.72C7.155,3.458,3.625,3.622,0.016,3.99v0.255C3.609,3.833,7.146,3.521,10.794,4.1
		c0.691,0.13,1.382,0.247,2.074,0.351C8.625,3.696,4.29,3.978,0.016,4.438v0.095c3.563-0.48,7.114-0.809,10.778-0.228
		c1.341,0.203,2.667,0.379,3.988,0.527c-0.197-0.041-0.396-0.067-0.592-0.115C13.758,4.618,13.325,4.532,12.891,4.454z"/>
	<path fill="#E5CD91" d="M10.794,3.688c-3.079-0.607-6.16-0.505-9.231-0.186C4.644,3.317,7.72,3.332,10.794,3.688z"/>
	<path fill="#E5CD91" d="M27.505,4.409c1.115-0.103,2.201-0.247,3.283-0.391c1.4-0.201,2.779-0.407,4.164-0.613V3.004
		c-1.353,0.199-2.707,0.395-4.063,0.56c-0.306,0.04-0.64,0.076-0.962,0.113c0.358-0.05,0.727-0.097,1.063-0.154
		c1.332-0.2,2.651-0.457,3.962-0.736V2.642c-1.311,0.21-2.63,0.409-3.962,0.572c-1.09,0.124-2.317,0.268-3.538,0.371
		C21.948,3.688,16.371,4.1,10.794,3.07C7.128,2.514,3.564,2.595,0.016,2.848v0.165c3.535-0.208,7.104-0.165,10.778,0.242
		c3.013,0.457,6.026,0.786,9.027,0.91c-3,0.01-6.014-0.125-9.027-0.704c3.726,0.716,7.451,0.847,11.118,0.755
		c1.72,0.012,3.434-0.051,5.141-0.209C27.182,4.004,27.312,4,27.44,3.997c1.228-0.103,2.46-0.247,3.55-0.391
		c1.148-0.152,2.289-0.326,3.422-0.501c-1.835,0.494-3.706,0.858-5.603,1.097c-0.973,0.104-2.063,0.208-3.086,0.248
		c-4.987,0.082-9.837-0.144-14.929-0.762C16.371,4.924,21.948,4.718,27.505,4.409z"/>
	<path fill="#E5CD91" d="M0.016,3.61v0.066c0.516-0.064,1.031-0.121,1.547-0.174C1.048,3.533,0.532,3.569,0.016,3.61z"/>
	<path fill="#E5CD91" d="M0.016,3.221v0.214C3.629,3.101,7.213,2.908,10.794,3.46C7.113,2.781,3.537,2.913,0.016,3.221z"/>
	<path fill="#E5CD91" d="M0.016,2.554v0.067c2.328-0.093,4.647-0.138,6.99-0.049C4.659,2.382,2.337,2.406,0.016,2.554z"/>
	<path fill="#E5CD91" d="M19.805,3.632c-2.981-0.063-5.96-0.326-9.01-0.788C9.521,2.703,8.261,2.62,7.006,2.572
		C8.26,2.674,9.521,2.83,10.794,3.07C13.801,3.625,16.808,3.691,19.805,3.632z"/>
	<path fill="#E5CD91" d="M26.188,3.444c-2.12,0.046-4.249,0.145-6.384,0.188C21.921,3.676,24.042,3.615,26.188,3.444z"/>
	<path fill="#E5CD91" d="M30.99,3.027c1.332-0.175,2.651-0.382,3.962-0.595V2.418c-1.36,0.213-2.727,0.415-4.1,0.568
		c-1.114,0.146-2.358,0.268-3.594,0.372c-0.358,0.035-0.714,0.058-1.07,0.086c0.423-0.009,0.847-0.021,1.269-0.024
		C28.673,3.317,29.9,3.173,30.99,3.027z"/>
	<path fill="#E5CD91" d="M0.016,2.132C0.543,2.1,1.069,2.077,1.595,2.058C1.07,2.069,0.543,2.082,0.016,2.102V2.132z"/>
	<path fill="#E5CD91" d="M23.838,3.111C19.525,2.844,15.16,3.07,10.794,2.432C9.13,2.241,7.488,2.135,5.852,2.08
		c1.636,0.083,3.278,0.25,4.943,0.558c5.577,1.05,11.154,0.617,16.719,0.412c1.23-0.104,2.463-0.227,3.578-0.393
		c1.293-0.156,2.579-0.352,3.86-0.565V2.085c-2.384,0.38-4.792,0.671-7.205,0.82C26.294,3.007,25.033,3.09,23.838,3.111z"/>
	<path fill="#E5CD91" d="M1.595,2.058c1.421-0.03,2.837-0.025,4.257,0.022C4.431,2.008,3.014,2.006,1.595,2.058z"/>
	<path fill="#E5CD91" d="M28.144,2.37c2.289-0.209,4.564-0.608,6.809-1.146V1.08c-1.883,0.397-3.794,0.745-5.719,0.979
		c-1.014,0.125-2.027,0.206-3.045,0.249c-4.725,0.33-9.575-0.082-14.179-0.515C7.961,1.379,4.019,1.158,0.016,1.223v0.125
		C1.331,1.349,2.651,1.38,4.01,1.38c4.021,0.244,8.044,0.787,12.05,1.103c-5.35-0.311-10.699-0.828-16.044-0.79v0.079
		c7.931-0.135,15.918,1.389,23.967,1.01c1.18-0.021,2.411-0.062,3.829-0.186c2.387-0.148,4.77-0.461,7.14-0.884v-0.01
		c-2.384,0.409-4.792,0.693-7.205,0.813c-1.434,0.124-2.682,0.164-3.872,0.185c-0.486,0.007-0.972,0.006-1.457,0.003
		c0.625-0.013,1.25-0.024,1.873-0.064C25.494,2.596,26.729,2.514,28.144,2.37z"/>
	<path fill="#E5CD91" d="M12.01,1.607c4.604,0.618,9.454,0.824,14.086,0.452c1.01-0.061,2.02-0.164,3.033-0.288
		c1.941-0.237,3.887-0.568,5.823-0.895V0.805c-1.937,0.291-3.882,0.598-5.823,0.822c-1.014,0.103-2.023,0.186-3.033,0.247
		C21.464,2.432,16.613,2.02,12.01,1.38C8.006,0.972,4.002,0.75,0.016,0.802v0.213C3.993,0.958,8.001,1.185,12.01,1.607z"/>
	<path fill="#E5CD91" d="M26.096,1.483C17.249,2.417,8.737,0.278,0.016,0.255v0.381c3.846,0.008,7.727,0.271,11.509,0.539
		c4.846,0.433,9.696,0.845,14.57,0.391c1.006-0.062,2.02-0.145,3.028-0.268c1.945-0.225,3.891-0.526,5.828-0.838V0.387
		c-1.938,0.285-3.883,0.584-5.828,0.809C28.115,1.318,27.102,1.401,26.096,1.483z"/>
	<path fill="#E5CD91" d="M26.084,1.051C17.478,1.648,8.723,0.282,0.016,0.105v0.108c3.861,0.02,7.734,0.283,11.509,0.549
		c4.846,0.412,9.696,0.618,14.559,0.391c1.014-0.041,2.027-0.102,3.036-0.206c1.947-0.171,3.895-0.461,5.832-0.809V0.13
		c-1.938,0.341-3.885,0.618-5.832,0.776C28.111,0.968,27.098,1.03,26.084,1.051z"/>
	<path fill="#E5CD91" d="M26.205,0.906c1.025-0.061,2.055-0.144,3.081-0.247C30.779,0.49,32.269,0.26,33.749,0h-0.478
		c-1.323,0.216-2.652,0.414-3.985,0.556c-1.026,0.103-2.056,0.206-3.081,0.247c-3.041,0.165-6.195,0.371-9.345-0.041
		C12.758,0.327,8.658,0.124,4.57,0H2.986C10.725,0.377,18.493,1.407,26.205,0.906z"/>
	<path fill="#E5CD91" d="M12.453,0H9.595c5.473,0.4,10.96,0.799,16.521,0.412c1.021-0.061,2.039-0.124,3.065-0.227
		c0.494-0.053,0.99-0.121,1.486-0.185h-1.297c-0.063,0.006-0.127,0.015-0.189,0.021c-1.026,0.102-2.044,0.164-3.065,0.206
		C21.523,0.538,16.98,0.315,12.453,0z"/>
	<path fill="#E5CD91" d="M26.338,0.123C26.864,0.092,27.391,0.05,27.919,0h-13.64C18.296,0.329,22.315,0.51,26.338,0.123z"/>
</g>
</svg>
